<svg xmlns="http://www.w3.org/2000/svg" xmlns:xlink="http://www.w3.org/1999/xlink" width="500" zoomAndPan="magnify" viewBox="0 0 375 374.999991" height="500" preserveAspectRatio="xMidYMid meet" version="1.0"><defs><g/><clipPath id="d58f2979ab"><path d="M 172.125 148.269531 L 202.875 148.269531 L 202.875 175.269531 L 172.125 175.269531 Z M 172.125 148.269531 " clip-rule="nonzero"/></clipPath></defs><g clip-path="url(#d58f2979ab)"><path fill="#532137" d="M 202.785156 150.835938 C 202.722656 150.519531 202.628906 150.203125 202.476562 149.898438 C 202.328125 149.59375 202.125 149.304688 201.863281 149.058594 C 201.601562 148.8125 201.285156 148.617188 200.945312 148.492188 C 200.777344 148.425781 200.605469 148.382812 200.429688 148.351562 L 200.203125 148.316406 C 200.121094 148.308594 200.03125 148.300781 199.949219 148.292969 C 199.632812 148.269531 199.320312 148.277344 199.011719 148.304688 C 198.402344 148.363281 197.816406 148.492188 197.25 148.667969 C 196.96875 148.757812 196.691406 148.855469 196.417969 148.960938 C 196.144531 149.070312 195.878906 149.1875 195.617188 149.3125 C 194.566406 149.8125 193.578125 150.421875 192.664062 151.128906 C 192.207031 151.476562 191.765625 151.851562 191.339844 152.246094 C 190.917969 152.640625 190.511719 153.058594 190.132812 153.5 C 189.371094 154.378906 188.691406 155.351562 188.171875 156.433594 C 187.914062 156.976562 187.699219 157.542969 187.539062 158.136719 C 187.527344 158.183594 187.515625 158.230469 187.503906 158.277344 C 187.492188 158.230469 187.480469 158.183594 187.46875 158.136719 C 187.308594 157.542969 187.09375 156.976562 186.835938 156.433594 C 186.316406 155.351562 185.636719 154.378906 184.875 153.5 C 184.496094 153.058594 184.089844 152.640625 183.667969 152.246094 C 183.242188 151.851562 182.800781 151.476562 182.34375 151.128906 C 181.429688 150.421875 180.441406 149.8125 179.390625 149.3125 C 179.128906 149.1875 178.863281 149.070312 178.589844 148.960938 C 178.316406 148.855469 178.039062 148.757812 177.757812 148.667969 C 177.191406 148.492188 176.605469 148.363281 175.996094 148.304688 C 175.6875 148.277344 175.375 148.269531 175.058594 148.292969 C 174.976562 148.300781 174.886719 148.308594 174.804688 148.316406 L 174.578125 148.351562 C 174.402344 148.382812 174.230469 148.425781 174.0625 148.492188 C 173.722656 148.617188 173.40625 148.8125 173.144531 149.058594 C 172.886719 149.304688 172.679688 149.59375 172.53125 149.898438 C 172.378906 150.203125 172.285156 150.519531 172.222656 150.835938 C 172.164062 151.152344 172.140625 151.464844 172.144531 151.773438 C 172.15625 152.394531 172.269531 152.992188 172.453125 153.554688 C 172.632812 154.121094 172.882812 154.65625 173.171875 155.15625 C 173.460938 155.660156 173.800781 156.132812 174.167969 156.570312 C 174.535156 157.007812 174.9375 157.414062 175.359375 157.792969 C 175.785156 158.167969 176.230469 158.515625 176.695312 158.835938 C 177.15625 159.15625 177.640625 159.441406 178.132812 159.707031 C 178.621094 159.972656 179.128906 160.210938 179.640625 160.425781 C 180.667969 160.855469 181.722656 161.191406 182.796875 161.445312 C 181.761719 161.066406 180.75 160.632812 179.785156 160.121094 C 179.300781 159.867188 178.832031 159.589844 178.375 159.292969 C 177.921875 159 177.480469 158.679688 177.0625 158.339844 C 176.640625 158.003906 176.242188 157.640625 175.871094 157.257812 C 175.496094 156.875 175.148438 156.46875 174.835938 156.042969 C 174.527344 155.617188 174.25 155.167969 174.015625 154.703125 C 173.78125 154.238281 173.59375 153.753906 173.46875 153.261719 C 173.34375 152.769531 173.273438 152.269531 173.292969 151.785156 C 173.308594 151.304688 173.417969 150.835938 173.625 150.46875 C 173.730469 150.285156 173.855469 150.125 174.003906 150 C 174.148438 149.875 174.316406 149.785156 174.496094 149.726562 C 174.585938 149.695312 174.683594 149.675781 174.78125 149.664062 L 174.960938 149.648438 L 175.121094 149.644531 C 175.351562 149.644531 175.59375 149.664062 175.832031 149.699219 C 176.316406 149.773438 176.804688 149.90625 177.28125 150.085938 C 177.761719 150.261719 178.230469 150.476562 178.691406 150.71875 C 179.609375 151.203125 180.480469 151.796875 181.292969 152.457031 C 181.699219 152.789062 182.089844 153.136719 182.464844 153.503906 C 182.648438 153.6875 182.832031 153.875 183.007812 154.066406 C 183.183594 154.257812 183.355469 154.453125 183.523438 154.652344 C 183.851562 155.050781 184.164062 155.460938 184.445312 155.890625 C 184.582031 156.105469 184.71875 156.320312 184.839844 156.542969 C 184.964844 156.765625 185.082031 156.988281 185.1875 157.214844 C 185.402344 157.667969 185.578125 158.136719 185.703125 158.605469 C 185.71875 158.664062 185.730469 158.722656 185.746094 158.78125 C 185.761719 158.839844 185.773438 158.902344 185.785156 158.960938 L 185.804688 159.050781 L 185.808594 159.070312 C 185.808594 159.078125 185.808594 159.078125 185.808594 159.078125 L 185.820312 159.128906 L 185.84375 159.28125 L 185.851562 159.328125 L 185.871094 159.484375 L 185.886719 159.660156 C 185.894531 159.71875 185.894531 159.777344 185.898438 159.835938 C 185.902344 159.894531 185.902344 159.953125 185.902344 160.011719 C 185.917969 160.945312 185.664062 161.882812 185.21875 162.769531 C 185.167969 162.878906 185.105469 162.988281 185.046875 163.101562 C 184.984375 163.207031 184.925781 163.320312 184.859375 163.425781 C 184.730469 163.640625 184.585938 163.851562 184.441406 164.0625 C 184.144531 164.480469 183.824219 164.886719 183.472656 165.28125 C 183.386719 165.378906 183.300781 165.476562 183.210938 165.570312 C 183.121094 165.667969 183.03125 165.765625 182.9375 165.859375 C 182.847656 165.953125 182.753906 166.046875 182.660156 166.140625 C 182.570312 166.234375 182.46875 166.332031 182.371094 166.429688 C 181.980469 166.816406 181.585938 167.207031 181.191406 167.601562 C 180.410156 168.390625 179.628906 169.210938 178.929688 170.136719 C 178.578125 170.597656 178.25 171.085938 177.972656 171.613281 C 177.964844 171.628906 177.957031 171.644531 177.945312 171.660156 C 177.925781 171.601562 177.90625 171.539062 177.886719 171.476562 C 177.707031 170.878906 177.558594 170.273438 177.433594 169.664062 C 177.308594 169.054688 177.21875 168.441406 177.171875 167.824219 C 177.125 167.210938 177.121094 166.59375 177.191406 165.988281 C 177.230469 165.683594 177.28125 165.382812 177.355469 165.089844 C 177.429688 164.800781 177.527344 164.511719 177.652344 164.242188 C 177.777344 163.96875 177.929688 163.707031 178.109375 163.464844 C 178.289062 163.222656 178.496094 163.003906 178.726562 162.808594 C 178.960938 162.613281 179.214844 162.4375 179.492188 162.296875 C 179.765625 162.152344 180.054688 162.035156 180.355469 161.9375 C 180.503906 161.890625 180.65625 161.847656 180.808594 161.8125 C 180.964844 161.773438 181.121094 161.742188 181.277344 161.714844 C 181.589844 161.660156 181.910156 161.621094 182.226562 161.601562 C 181.589844 161.5625 180.9375 161.585938 180.296875 161.714844 C 179.976562 161.777344 179.660156 161.867188 179.351562 161.992188 C 179.042969 162.113281 178.746094 162.273438 178.464844 162.460938 C 178.1875 162.652344 177.933594 162.878906 177.703125 163.132812 C 177.476562 163.382812 177.277344 163.664062 177.109375 163.960938 C 176.773438 164.554688 176.558594 165.207031 176.429688 165.867188 C 176.363281 166.195312 176.320312 166.527344 176.292969 166.859375 C 176.261719 167.195312 176.25 167.527344 176.25 167.859375 C 176.253906 168.523438 176.308594 169.183594 176.394531 169.835938 C 176.4375 170.164062 176.488281 170.488281 176.550781 170.8125 C 176.613281 171.136719 176.679688 171.457031 176.753906 171.777344 C 176.832031 172.097656 176.914062 172.417969 177.003906 172.734375 C 177.046875 172.890625 177.09375 173.050781 177.144531 173.207031 L 177.222656 173.445312 L 177.261719 173.566406 L 177.304688 173.691406 L 177.894531 175.367188 L 178.511719 173.65625 C 178.683594 173.179688 178.902344 172.722656 179.167969 172.285156 C 179.429688 171.851562 179.734375 171.4375 180.066406 171.035156 C 180.402344 170.632812 180.761719 170.246094 181.136719 169.867188 C 181.515625 169.488281 181.90625 169.109375 182.300781 168.738281 C 182.699219 168.363281 183.101562 167.992188 183.503906 167.621094 C 183.707031 167.4375 183.917969 167.242188 184.125 167.042969 C 184.226562 166.941406 184.328125 166.839844 184.429688 166.738281 C 184.53125 166.636719 184.628906 166.53125 184.730469 166.425781 C 185.125 166.007812 185.503906 165.5625 185.859375 165.09375 C 186.03125 164.855469 186.203125 164.613281 186.363281 164.359375 C 186.445312 164.234375 186.519531 164.105469 186.597656 163.976562 C 186.667969 163.84375 186.746094 163.714844 186.8125 163.578125 C 186.882812 163.445312 186.949219 163.308594 187.015625 163.171875 C 187.074219 163.03125 187.136719 162.890625 187.195312 162.746094 C 187.304688 162.460938 187.410156 162.167969 187.484375 161.863281 C 187.492188 161.839844 187.496094 161.816406 187.503906 161.792969 C 187.511719 161.816406 187.515625 161.839844 187.523438 161.863281 C 187.601562 162.167969 187.703125 162.460938 187.8125 162.746094 C 187.871094 162.890625 187.933594 163.03125 187.992188 163.171875 C 188.058594 163.308594 188.125 163.445312 188.195312 163.578125 C 188.261719 163.714844 188.339844 163.84375 188.410156 163.976562 C 188.488281 164.105469 188.5625 164.234375 188.644531 164.359375 C 188.804688 164.613281 188.976562 164.855469 189.148438 165.09375 C 189.503906 165.5625 189.882812 166.007812 190.277344 166.425781 C 190.378906 166.53125 190.476562 166.636719 190.578125 166.738281 C 190.679688 166.839844 190.78125 166.941406 190.882812 167.042969 C 191.089844 167.242188 191.304688 167.4375 191.503906 167.621094 C 191.90625 167.992188 192.308594 168.363281 192.707031 168.738281 C 193.105469 169.109375 193.492188 169.488281 193.871094 169.867188 C 194.246094 170.246094 194.605469 170.632812 194.941406 171.035156 C 195.273438 171.4375 195.578125 171.851562 195.839844 172.285156 C 196.105469 172.722656 196.324219 173.179688 196.496094 173.65625 L 197.113281 175.367188 L 197.703125 173.691406 L 197.746094 173.566406 L 197.785156 173.445312 L 197.863281 173.207031 C 197.914062 173.050781 197.960938 172.890625 198.003906 172.734375 C 198.09375 172.417969 198.175781 172.097656 198.253906 171.777344 C 198.328125 171.457031 198.394531 171.136719 198.457031 170.8125 C 198.519531 170.488281 198.570312 170.164062 198.613281 169.835938 C 198.703125 169.183594 198.753906 168.523438 198.757812 167.859375 C 198.757812 167.527344 198.746094 167.195312 198.714844 166.859375 C 198.6875 166.527344 198.644531 166.195312 198.578125 165.867188 C 198.449219 165.207031 198.234375 164.554688 197.898438 163.960938 C 197.730469 163.664062 197.53125 163.382812 197.304688 163.132812 C 197.074219 162.878906 196.820312 162.652344 196.542969 162.460938 C 196.261719 162.273438 195.964844 162.113281 195.65625 161.992188 C 195.347656 161.867188 195.03125 161.777344 194.710938 161.714844 C 194.070312 161.585938 193.417969 161.5625 192.78125 161.601562 C 193.101562 161.621094 193.417969 161.660156 193.730469 161.714844 C 193.886719 161.742188 194.042969 161.773438 194.199219 161.8125 C 194.351562 161.847656 194.503906 161.890625 194.652344 161.9375 C 194.953125 162.035156 195.242188 162.152344 195.515625 162.296875 C 195.792969 162.4375 196.046875 162.613281 196.28125 162.808594 C 196.511719 163.003906 196.71875 163.222656 196.898438 163.464844 C 197.078125 163.707031 197.230469 163.96875 197.355469 164.242188 C 197.480469 164.511719 197.578125 164.800781 197.652344 165.089844 C 197.726562 165.382812 197.777344 165.683594 197.816406 165.988281 C 197.886719 166.59375 197.882812 167.210938 197.835938 167.824219 C 197.789062 168.441406 197.699219 169.054688 197.574219 169.664062 C 197.449219 170.273438 197.300781 170.878906 197.121094 171.476562 C 197.101562 171.539062 197.082031 171.601562 197.0625 171.660156 C 197.050781 171.644531 197.042969 171.628906 197.035156 171.613281 C 196.757812 171.085938 196.429688 170.597656 196.078125 170.136719 C 195.378906 169.210938 194.597656 168.390625 193.816406 167.601562 C 193.421875 167.207031 193.027344 166.816406 192.636719 166.429688 C 192.539062 166.332031 192.4375 166.234375 192.347656 166.140625 C 192.253906 166.046875 192.160156 165.953125 192.070312 165.859375 C 191.976562 165.765625 191.886719 165.667969 191.796875 165.570312 C 191.707031 165.476562 191.621094 165.378906 191.535156 165.28125 C 191.1875 164.886719 190.863281 164.480469 190.566406 164.0625 C 190.421875 163.851562 190.277344 163.640625 190.148438 163.425781 C 190.082031 163.320312 190.023438 163.207031 189.960938 163.101562 C 189.902344 162.988281 189.839844 162.878906 189.789062 162.769531 C 189.347656 161.882812 189.089844 160.945312 189.105469 160.011719 C 189.105469 159.953125 189.105469 159.894531 189.109375 159.835938 C 189.113281 159.777344 189.113281 159.71875 189.121094 159.660156 L 189.136719 159.484375 L 189.15625 159.328125 L 189.164062 159.28125 L 189.1875 159.128906 L 189.199219 159.078125 C 189.199219 159.078125 189.199219 159.078125 189.199219 159.070312 L 189.203125 159.050781 L 189.222656 158.960938 C 189.234375 158.902344 189.246094 158.839844 189.261719 158.78125 C 189.277344 158.722656 189.289062 158.664062 189.304688 158.605469 C 189.429688 158.136719 189.605469 157.667969 189.820312 157.214844 C 189.925781 156.988281 190.042969 156.765625 190.167969 156.542969 C 190.289062 156.320312 190.425781 156.105469 190.5625 155.890625 C 190.84375 155.460938 191.15625 155.050781 191.488281 154.652344 C 191.652344 154.453125 191.824219 154.257812 192 154.066406 C 192.175781 153.875 192.359375 153.6875 192.542969 153.503906 C 192.917969 153.136719 193.308594 152.789062 193.714844 152.457031 C 194.527344 151.796875 195.398438 151.203125 196.316406 150.71875 C 196.777344 150.476562 197.246094 150.261719 197.726562 150.085938 C 198.203125 149.90625 198.691406 149.773438 199.175781 149.699219 C 199.414062 149.664062 199.65625 149.644531 199.886719 149.644531 L 200.046875 149.648438 L 200.226562 149.664062 C 200.324219 149.675781 200.421875 149.695312 200.511719 149.726562 C 200.691406 149.785156 200.859375 149.875 201.003906 150 C 201.152344 150.125 201.277344 150.285156 201.382812 150.46875 C 201.589844 150.835938 201.699219 151.304688 201.714844 151.785156 C 201.734375 152.269531 201.664062 152.769531 201.539062 153.261719 C 201.414062 153.753906 201.226562 154.238281 200.992188 154.703125 C 200.757812 155.167969 200.480469 155.617188 200.171875 156.042969 C 199.859375 156.46875 199.511719 156.875 199.136719 157.257812 C 198.765625 157.640625 198.367188 158.003906 197.945312 158.339844 C 197.527344 158.679688 197.089844 159 196.632812 159.292969 C 196.175781 159.589844 195.707031 159.867188 195.222656 160.121094 C 194.257812 160.632812 193.246094 161.066406 192.210938 161.445312 C 193.285156 161.191406 194.34375 160.855469 195.367188 160.425781 C 195.878906 160.210938 196.386719 159.972656 196.875 159.707031 C 197.367188 159.441406 197.851562 159.15625 198.3125 158.835938 C 198.777344 158.515625 199.222656 158.167969 199.648438 157.792969 C 200.070312 157.414062 200.472656 157.007812 200.839844 156.570312 C 201.207031 156.132812 201.546875 155.660156 201.835938 155.15625 C 202.125 154.65625 202.375 154.121094 202.554688 153.554688 C 202.738281 152.992188 202.851562 152.394531 202.863281 151.773438 C 202.867188 151.464844 202.84375 151.152344 202.785156 150.835938 " fill-opacity="1" fill-rule="nonzero"/></g><g fill="#532137" fill-opacity="1"><g transform="translate(109.733884, 204.009873)"><g><path d="M 16.03125 -27.609375 L 27.171875 0 L 20.421875 0 L 18.375 -5.515625 L 7.859375 -5.515625 L 5.828125 0 L -0.9375 0 L 10.203125 -27.609375 Z M 16.234375 -11.046875 L 13.15625 -19.078125 L 13.09375 -19.078125 L 10 -11.046875 Z M 16.234375 -11.046875 "/></g></g></g><g fill="#532137" fill-opacity="1"><g transform="translate(135.97161, 204.009873)"><g><path d="M 3.015625 -17.171875 L 3.015625 -20.8125 C 3.035156 -23.382812 3.632812 -25.4375 4.8125 -26.96875 C 6 -28.507812 7.640625 -29.28125 9.734375 -29.28125 C 10.628906 -29.28125 11.484375 -29.148438 12.296875 -28.890625 C 13.109375 -28.640625 13.695312 -28.378906 14.0625 -28.109375 L 14.625 -27.75 L 12.546875 -23.5625 C 12.015625 -23.875 11.425781 -24.03125 10.78125 -24.03125 C 10.039062 -24.03125 9.546875 -23.78125 9.296875 -23.28125 C 9.054688 -22.78125 8.9375 -21.90625 8.9375 -20.65625 L 8.9375 -17.171875 L 12.890625 -17.171875 L 12.890625 -12.65625 L 8.9375 -12.65625 L 8.9375 0 L 3.015625 0 L 3.015625 -12.65625 L 0.53125 -12.65625 L 0.53125 -17.171875 Z M 3.015625 -17.171875 "/></g></g></g><g fill="#532137" fill-opacity="1"><g transform="translate(148.521543, 204.009873)"><g><path d="M 3.015625 -17.171875 L 3.015625 -20.8125 C 3.035156 -23.382812 3.632812 -25.4375 4.8125 -26.96875 C 6 -28.507812 7.640625 -29.28125 9.734375 -29.28125 C 10.628906 -29.28125 11.484375 -29.148438 12.296875 -28.890625 C 13.109375 -28.640625 13.695312 -28.378906 14.0625 -28.109375 L 14.625 -27.75 L 12.546875 -23.5625 C 12.015625 -23.875 11.425781 -24.03125 10.78125 -24.03125 C 10.039062 -24.03125 9.546875 -23.78125 9.296875 -23.28125 C 9.054688 -22.78125 8.9375 -21.90625 8.9375 -20.65625 L 8.9375 -17.171875 L 12.890625 -17.171875 L 12.890625 -12.65625 L 8.9375 -12.65625 L 8.9375 0 L 3.015625 0 L 3.015625 -12.65625 L 0.53125 -12.65625 L 0.53125 -17.171875 Z M 3.015625 -17.171875 "/></g></g></g><g fill="#532137" fill-opacity="1"><g transform="translate(161.071476, 204.009873)"><g><path d="M 19.375 -7.765625 L 6.921875 -7.765625 C 6.921875 -6.554688 7.3125 -5.660156 8.09375 -5.078125 C 8.875 -4.503906 9.722656 -4.21875 10.640625 -4.21875 C 11.597656 -4.21875 12.351562 -4.34375 12.90625 -4.59375 C 13.46875 -4.851562 14.109375 -5.363281 14.828125 -6.125 L 19.109375 -3.984375 C 17.328125 -0.992188 14.359375 0.5 10.203125 0.5 C 7.617188 0.5 5.398438 -0.382812 3.546875 -2.15625 C 1.691406 -3.925781 0.765625 -6.0625 0.765625 -8.5625 C 0.765625 -11.0625 1.691406 -13.203125 3.546875 -14.984375 C 5.398438 -16.773438 7.617188 -17.671875 10.203125 -17.671875 C 12.929688 -17.671875 15.144531 -16.882812 16.84375 -15.3125 C 18.550781 -13.738281 19.40625 -11.488281 19.40625 -8.5625 C 19.40625 -8.164062 19.394531 -7.898438 19.375 -7.765625 Z M 7.09375 -11.046875 L 13.625 -11.046875 C 13.488281 -11.941406 13.132812 -12.628906 12.5625 -13.109375 C 12 -13.585938 11.269531 -13.828125 10.375 -13.828125 C 9.394531 -13.828125 8.613281 -13.566406 8.03125 -13.046875 C 7.445312 -12.535156 7.132812 -11.867188 7.09375 -11.046875 Z M 7.09375 -11.046875 "/></g></g></g><g fill="#532137" fill-opacity="1"><g transform="translate(181.251764, 204.009873)"><g><path d="M 11.140625 -12.8125 C 10.023438 -12.8125 9.066406 -12.398438 8.265625 -11.578125 C 7.460938 -10.753906 7.0625 -9.757812 7.0625 -8.59375 C 7.0625 -7.414062 7.460938 -6.410156 8.265625 -5.578125 C 9.066406 -4.753906 10.023438 -4.34375 11.140625 -4.34375 C 11.679688 -4.34375 12.191406 -4.410156 12.671875 -4.546875 C 13.148438 -4.679688 13.5 -4.816406 13.71875 -4.953125 L 14.015625 -5.15625 L 16.03125 -1.03125 C 15.875 -0.925781 15.65625 -0.789062 15.375 -0.625 C 15.09375 -0.457031 14.457031 -0.226562 13.46875 0.0625 C 12.476562 0.351562 11.414062 0.5 10.28125 0.5 C 7.757812 0.5 5.539062 -0.382812 3.625 -2.15625 C 1.71875 -3.925781 0.765625 -6.050781 0.765625 -8.53125 C 0.765625 -11.03125 1.71875 -13.175781 3.625 -14.96875 C 5.539062 -16.769531 7.757812 -17.671875 10.28125 -17.671875 C 11.414062 -17.671875 12.460938 -17.535156 13.421875 -17.265625 C 14.378906 -17.003906 15.0625 -16.738281 15.46875 -16.46875 L 16.03125 -16.0625 L 14.015625 -12.015625 C 13.285156 -12.546875 12.328125 -12.8125 11.140625 -12.8125 Z M 11.140625 -12.8125 "/></g></g></g><g fill="#532137" fill-opacity="1"><g transform="translate(197.683807, 204.009873)"><g><path d="M 3.015625 -17.171875 L 3.015625 -23.5625 L 8.9375 -23.5625 L 8.9375 -17.171875 L 12.546875 -17.171875 L 12.546875 -12.65625 L 8.9375 -12.65625 L 8.9375 -7.203125 C 8.9375 -5.609375 9.382812 -4.8125 10.28125 -4.8125 C 10.5 -4.8125 10.726562 -4.859375 10.96875 -4.953125 C 11.21875 -5.046875 11.410156 -5.132812 11.546875 -5.21875 L 11.75 -5.359375 L 13.21875 -0.5625 C 11.945312 0.144531 10.5 0.5 8.875 0.5 C 7.757812 0.5 6.796875 0.304688 5.984375 -0.078125 C 5.179688 -0.472656 4.570312 -1 4.15625 -1.65625 C 3.75 -2.3125 3.457031 -3 3.28125 -3.71875 C 3.101562 -4.445312 3.015625 -5.226562 3.015625 -6.0625 L 3.015625 -12.65625 L 0.53125 -12.65625 L 0.53125 -17.171875 Z M 3.015625 -17.171875 "/></g></g></g><g fill="#532137" fill-opacity="1"><g transform="translate(210.903072, 204.009873)"><g><path d="M 2.578125 -26.734375 C 3.265625 -27.429688 4.085938 -27.78125 5.046875 -27.78125 C 6.015625 -27.78125 6.84375 -27.429688 7.53125 -26.734375 C 8.21875 -26.046875 8.5625 -25.222656 8.5625 -24.265625 C 8.5625 -23.304688 8.21875 -22.476562 7.53125 -21.78125 C 6.84375 -21.09375 6.015625 -20.75 5.046875 -20.75 C 4.085938 -20.75 3.265625 -21.09375 2.578125 -21.78125 C 1.890625 -22.476562 1.546875 -23.304688 1.546875 -24.265625 C 1.546875 -25.222656 1.890625 -26.046875 2.578125 -26.734375 Z M 2.015625 -17.171875 L 2.015625 0 L 7.9375 0 L 7.9375 -17.171875 Z M 2.015625 -17.171875 "/></g></g></g><g fill="#532137" fill-opacity="1"><g transform="translate(221.009952, 204.009873)"><g><path d="M 3.625 -2.03125 C 1.71875 -3.726562 0.765625 -5.90625 0.765625 -8.5625 C 0.765625 -11.21875 1.757812 -13.398438 3.75 -15.109375 C 5.738281 -16.816406 8.191406 -17.671875 11.109375 -17.671875 C 13.984375 -17.671875 16.410156 -16.8125 18.390625 -15.09375 C 20.367188 -13.375 21.359375 -11.195312 21.359375 -8.5625 C 21.359375 -5.9375 20.390625 -3.769531 18.453125 -2.0625 C 16.523438 -0.351562 14.078125 0.5 11.109375 0.5 C 8.035156 0.5 5.539062 -0.34375 3.625 -2.03125 Z M 8.21875 -11.484375 C 7.445312 -10.722656 7.0625 -9.75 7.0625 -8.5625 C 7.0625 -7.382812 7.425781 -6.421875 8.15625 -5.671875 C 8.894531 -4.921875 9.867188 -4.546875 11.078125 -4.546875 C 12.234375 -4.546875 13.1875 -4.925781 13.9375 -5.6875 C 14.6875 -6.445312 15.0625 -7.40625 15.0625 -8.5625 C 15.0625 -9.75 14.675781 -10.722656 13.90625 -11.484375 C 13.132812 -12.242188 12.191406 -12.625 11.078125 -12.625 C 9.941406 -12.625 8.988281 -12.242188 8.21875 -11.484375 Z M 8.21875 -11.484375 "/></g></g></g><g fill="#532137" fill-opacity="1"><g transform="translate(243.131292, 204.009873)"><g><path d="M 2.015625 0 L 2.015625 -17.171875 L 7.9375 -17.171875 L 7.9375 -15.359375 L 8 -15.359375 C 9.539062 -16.898438 11.179688 -17.671875 12.921875 -17.671875 C 13.765625 -17.671875 14.601562 -17.554688 15.4375 -17.328125 C 16.28125 -17.109375 17.085938 -16.765625 17.859375 -16.296875 C 18.628906 -15.828125 19.253906 -15.160156 19.734375 -14.296875 C 20.210938 -13.441406 20.453125 -12.445312 20.453125 -11.3125 L 20.453125 0 L 14.53125 0 L 14.53125 -9.703125 C 14.53125 -10.597656 14.242188 -11.378906 13.671875 -12.046875 C 13.097656 -12.710938 12.359375 -13.046875 11.453125 -13.046875 C 10.554688 -13.046875 9.742188 -12.703125 9.015625 -12.015625 C 8.296875 -11.328125 7.9375 -10.554688 7.9375 -9.703125 L 7.9375 0 Z M 2.015625 0 "/></g></g></g><g fill="#532137" fill-opacity="1"><g transform="translate(54.769369, 223.546442)"><g><path d="M 3.703125 0.046875 C 3.085938 0.046875 2.53125 -0.0859375 2.03125 -0.359375 C 1.539062 -0.628906 1.15625 -1.003906 0.875 -1.484375 C 0.59375 -1.960938 0.453125 -2.5 0.453125 -3.09375 C 0.453125 -3.6875 0.59375 -4.222656 0.875 -4.703125 C 1.15625 -5.191406 1.539062 -5.570312 2.03125 -5.84375 C 2.53125 -6.113281 3.085938 -6.25 3.703125 -6.25 C 4.160156 -6.25 4.582031 -6.171875 4.96875 -6.015625 C 5.363281 -5.859375 5.695312 -5.632812 5.96875 -5.34375 L 5.546875 -4.921875 C 5.066406 -5.410156 4.457031 -5.65625 3.71875 -5.65625 C 3.226562 -5.65625 2.78125 -5.539062 2.375 -5.3125 C 1.976562 -5.09375 1.664062 -4.789062 1.4375 -4.40625 C 1.21875 -4.019531 1.109375 -3.582031 1.109375 -3.09375 C 1.109375 -2.613281 1.21875 -2.175781 1.4375 -1.78125 C 1.664062 -1.394531 1.976562 -1.085938 2.375 -0.859375 C 2.78125 -0.640625 3.226562 -0.53125 3.71875 -0.53125 C 4.46875 -0.53125 5.078125 -0.78125 5.546875 -1.28125 L 5.96875 -0.859375 C 5.695312 -0.566406 5.363281 -0.34375 4.96875 -0.1875 C 4.582031 -0.03125 4.160156 0.046875 3.703125 0.046875 Z M 3.703125 0.046875 "/></g></g></g><g fill="#532137" fill-opacity="1"><g transform="translate(63.668073, 223.546442)"><g><path d="M 3.71875 0.046875 C 3.101562 0.046875 2.546875 -0.0859375 2.046875 -0.359375 C 1.546875 -0.628906 1.15625 -1.003906 0.875 -1.484375 C 0.59375 -1.960938 0.453125 -2.5 0.453125 -3.09375 C 0.453125 -3.6875 0.59375 -4.222656 0.875 -4.703125 C 1.15625 -5.179688 1.546875 -5.554688 2.046875 -5.828125 C 2.546875 -6.109375 3.101562 -6.25 3.71875 -6.25 C 4.332031 -6.25 4.882812 -6.113281 5.375 -5.84375 C 5.863281 -5.570312 6.25 -5.191406 6.53125 -4.703125 C 6.8125 -4.222656 6.953125 -3.6875 6.953125 -3.09375 C 6.953125 -2.5 6.8125 -1.960938 6.53125 -1.484375 C 6.25 -1.003906 5.863281 -0.628906 5.375 -0.359375 C 4.882812 -0.0859375 4.332031 0.046875 3.71875 0.046875 Z M 3.71875 -0.53125 C 4.207031 -0.53125 4.648438 -0.640625 5.046875 -0.859375 C 5.441406 -1.078125 5.75 -1.382812 5.96875 -1.78125 C 6.195312 -2.175781 6.3125 -2.613281 6.3125 -3.09375 C 6.3125 -3.582031 6.195312 -4.019531 5.96875 -4.40625 C 5.75 -4.800781 5.441406 -5.109375 5.046875 -5.328125 C 4.648438 -5.546875 4.207031 -5.65625 3.71875 -5.65625 C 3.226562 -5.65625 2.78125 -5.546875 2.375 -5.328125 C 1.976562 -5.109375 1.664062 -4.800781 1.4375 -4.40625 C 1.21875 -4.019531 1.109375 -3.582031 1.109375 -3.09375 C 1.109375 -2.613281 1.21875 -2.175781 1.4375 -1.78125 C 1.664062 -1.382812 1.976562 -1.078125 2.375 -0.859375 C 2.78125 -0.640625 3.226562 -0.53125 3.71875 -0.53125 Z M 3.71875 -0.53125 "/></g></g></g><g fill="#532137" fill-opacity="1"><g transform="translate(73.626986, 223.546442)"><g><path d="M 6.1875 -6.1875 L 6.1875 0 L 5.640625 0 L 1.65625 -5.015625 L 1.65625 0 L 1.015625 0 L 1.015625 -6.1875 L 1.546875 -6.1875 L 5.53125 -1.171875 L 5.53125 -6.1875 Z M 6.1875 -6.1875 "/></g></g></g><g fill="#532137" fill-opacity="1"><g transform="translate(83.356182, 223.546442)"><g><path d="M 2.71875 0.046875 C 2.257812 0.046875 1.816406 -0.0234375 1.390625 -0.171875 C 0.972656 -0.316406 0.648438 -0.507812 0.421875 -0.75 L 0.671875 -1.25 C 0.898438 -1.03125 1.195312 -0.847656 1.5625 -0.703125 C 1.9375 -0.566406 2.320312 -0.5 2.71875 -0.5 C 3.269531 -0.5 3.679688 -0.597656 3.953125 -0.796875 C 4.234375 -1.003906 4.375 -1.269531 4.375 -1.59375 C 4.375 -1.84375 4.296875 -2.039062 4.140625 -2.1875 C 3.992188 -2.34375 3.8125 -2.457031 3.59375 -2.53125 C 3.375 -2.613281 3.070312 -2.703125 2.6875 -2.796875 C 2.21875 -2.910156 1.84375 -3.019531 1.5625 -3.125 C 1.289062 -3.238281 1.054688 -3.40625 0.859375 -3.625 C 0.660156 -3.851562 0.5625 -4.160156 0.5625 -4.546875 C 0.5625 -4.859375 0.644531 -5.140625 0.8125 -5.390625 C 0.976562 -5.648438 1.234375 -5.859375 1.578125 -6.015625 C 1.921875 -6.171875 2.34375 -6.25 2.84375 -6.25 C 3.195312 -6.25 3.539062 -6.195312 3.875 -6.09375 C 4.21875 -6 4.515625 -5.867188 4.765625 -5.703125 L 4.546875 -5.171875 C 4.285156 -5.347656 4.003906 -5.476562 3.703125 -5.5625 C 3.410156 -5.644531 3.125 -5.6875 2.84375 -5.6875 C 2.300781 -5.6875 1.894531 -5.582031 1.625 -5.375 C 1.351562 -5.164062 1.21875 -4.894531 1.21875 -4.5625 C 1.21875 -4.3125 1.289062 -4.109375 1.4375 -3.953125 C 1.582031 -3.804688 1.769531 -3.691406 2 -3.609375 C 2.226562 -3.535156 2.535156 -3.453125 2.921875 -3.359375 C 3.367188 -3.242188 3.734375 -3.128906 4.015625 -3.015625 C 4.296875 -2.910156 4.53125 -2.75 4.71875 -2.53125 C 4.914062 -2.3125 5.015625 -2.015625 5.015625 -1.640625 C 5.015625 -1.328125 4.929688 -1.039062 4.765625 -0.78125 C 4.597656 -0.519531 4.335938 -0.316406 3.984375 -0.171875 C 3.640625 -0.0234375 3.21875 0.046875 2.71875 0.046875 Z M 2.71875 0.046875 "/></g></g></g><g fill="#532137" fill-opacity="1"><g transform="translate(91.336038, 223.546442)"><g><path d="M 3.5 0.046875 C 2.695312 0.046875 2.070312 -0.179688 1.625 -0.640625 C 1.175781 -1.097656 0.953125 -1.765625 0.953125 -2.640625 L 0.953125 -6.1875 L 1.609375 -6.1875 L 1.609375 -2.671875 C 1.609375 -1.953125 1.769531 -1.414062 2.09375 -1.0625 C 2.414062 -0.707031 2.882812 -0.53125 3.5 -0.53125 C 4.125 -0.53125 4.597656 -0.707031 4.921875 -1.0625 C 5.242188 -1.414062 5.40625 -1.953125 5.40625 -2.671875 L 5.40625 -6.1875 L 6.046875 -6.1875 L 6.046875 -2.640625 C 6.046875 -1.765625 5.820312 -1.097656 5.375 -0.640625 C 4.925781 -0.179688 4.300781 0.046875 3.5 0.046875 Z M 3.5 0.046875 "/></g></g></g><g fill="#532137" fill-opacity="1"><g transform="translate(100.879694, 223.546442)"><g><path d="M 1.015625 -6.1875 L 1.65625 -6.1875 L 1.65625 -0.5625 L 5.125 -0.5625 L 5.125 0 L 1.015625 0 Z M 1.015625 -6.1875 "/></g></g></g><g fill="#532137" fill-opacity="1"><g transform="translate(108.62984, 223.546442)"><g><path d="M 2.203125 -5.625 L 0.03125 -5.625 L 0.03125 -6.1875 L 5.046875 -6.1875 L 5.046875 -5.625 L 2.859375 -5.625 L 2.859375 0 L 2.203125 0 Z M 2.203125 -5.625 "/></g></g></g><g fill="#532137" fill-opacity="1"><g transform="translate(116.247458, 223.546442)"><g><path d="M 3.71875 0.046875 C 3.101562 0.046875 2.546875 -0.0859375 2.046875 -0.359375 C 1.546875 -0.628906 1.15625 -1.003906 0.875 -1.484375 C 0.59375 -1.960938 0.453125 -2.5 0.453125 -3.09375 C 0.453125 -3.6875 0.59375 -4.222656 0.875 -4.703125 C 1.15625 -5.179688 1.546875 -5.554688 2.046875 -5.828125 C 2.546875 -6.109375 3.101562 -6.25 3.71875 -6.25 C 4.332031 -6.25 4.882812 -6.113281 5.375 -5.84375 C 5.863281 -5.570312 6.25 -5.191406 6.53125 -4.703125 C 6.8125 -4.222656 6.953125 -3.6875 6.953125 -3.09375 C 6.953125 -2.5 6.8125 -1.960938 6.53125 -1.484375 C 6.25 -1.003906 5.863281 -0.628906 5.375 -0.359375 C 4.882812 -0.0859375 4.332031 0.046875 3.71875 0.046875 Z M 3.71875 -0.53125 C 4.207031 -0.53125 4.648438 -0.640625 5.046875 -0.859375 C 5.441406 -1.078125 5.75 -1.382812 5.96875 -1.78125 C 6.195312 -2.175781 6.3125 -2.613281 6.3125 -3.09375 C 6.3125 -3.582031 6.195312 -4.019531 5.96875 -4.40625 C 5.75 -4.800781 5.441406 -5.109375 5.046875 -5.328125 C 4.648438 -5.546875 4.207031 -5.65625 3.71875 -5.65625 C 3.226562 -5.65625 2.78125 -5.546875 2.375 -5.328125 C 1.976562 -5.109375 1.664062 -4.800781 1.4375 -4.40625 C 1.21875 -4.019531 1.109375 -3.582031 1.109375 -3.09375 C 1.109375 -2.613281 1.21875 -2.175781 1.4375 -1.78125 C 1.664062 -1.382812 1.976562 -1.078125 2.375 -0.859375 C 2.78125 -0.640625 3.226562 -0.53125 3.71875 -0.53125 Z M 3.71875 -0.53125 "/></g></g></g><g fill="#532137" fill-opacity="1"><g transform="translate(126.206369, 223.546442)"><g><path d="M 5.234375 0 L 3.828125 -1.984375 C 3.660156 -1.972656 3.492188 -1.96875 3.328125 -1.96875 L 1.65625 -1.96875 L 1.65625 0 L 1.015625 0 L 1.015625 -6.1875 L 3.328125 -6.1875 C 4.117188 -6.1875 4.738281 -6 5.1875 -5.625 C 5.632812 -5.25 5.859375 -4.726562 5.859375 -4.0625 C 5.859375 -3.582031 5.734375 -3.175781 5.484375 -2.84375 C 5.242188 -2.507812 4.894531 -2.269531 4.4375 -2.125 L 5.953125 0 Z M 3.3125 -2.515625 C 3.925781 -2.515625 4.394531 -2.648438 4.71875 -2.921875 C 5.039062 -3.191406 5.203125 -3.570312 5.203125 -4.0625 C 5.203125 -4.5625 5.039062 -4.945312 4.71875 -5.21875 C 4.394531 -5.488281 3.925781 -5.625 3.3125 -5.625 L 1.65625 -5.625 L 1.65625 -2.515625 Z M 3.3125 -2.515625 "/></g></g></g><g fill="#532137" fill-opacity="1"><g transform="translate(135.140416, 223.546442)"><g><path d="M 1.015625 -6.1875 L 1.65625 -6.1875 L 1.65625 0 L 1.015625 0 Z M 1.015625 -6.1875 "/></g></g></g><g fill="#532137" fill-opacity="1"><g transform="translate(140.354906, 223.546442)"><g><path d="M 4.890625 -1.65625 L 1.4375 -1.65625 L 0.703125 0 L 0.015625 0 L 2.84375 -6.1875 L 3.5 -6.1875 L 6.328125 0 L 5.640625 0 Z M 4.65625 -2.1875 L 3.171875 -5.515625 L 1.6875 -2.1875 Z M 4.65625 -2.1875 "/></g></g></g><g fill="#532137" fill-opacity="1"><g transform="translate(149.235944, 223.546442)"><g/></g></g><g fill="#532137" fill-opacity="1"><g transform="translate(154.097029, 223.546442)"><g><path d="M 5.390625 -0.5625 L 5.390625 0 L 1.015625 0 L 1.015625 -6.1875 L 5.25 -6.1875 L 5.25 -5.625 L 1.65625 -5.625 L 1.65625 -3.421875 L 4.859375 -3.421875 L 4.859375 -2.859375 L 1.65625 -2.859375 L 1.65625 -0.5625 Z M 5.390625 -0.5625 "/></g></g></g><g fill="#532137" fill-opacity="1"><g transform="translate(162.553982, 223.546442)"><g><path d="M 7.4375 -6.1875 L 7.4375 0 L 6.8125 0 L 6.8125 -4.953125 L 4.375 -0.78125 L 4.0625 -0.78125 L 1.640625 -4.921875 L 1.640625 0 L 1.015625 0 L 1.015625 -6.1875 L 1.546875 -6.1875 L 4.234375 -1.59375 L 6.890625 -6.1875 Z M 7.4375 -6.1875 "/></g></g></g><g fill="#532137" fill-opacity="1"><g transform="translate(173.537755, 223.546442)"><g/></g></g><g fill="#532137" fill-opacity="1"><g transform="translate(178.398841, 223.546442)"><g><path d="M 5.375 -3.09375 L 6 -3.09375 L 6 -0.734375 C 5.707031 -0.484375 5.363281 -0.289062 4.96875 -0.15625 C 4.570312 -0.0195312 4.15625 0.046875 3.71875 0.046875 C 3.101562 0.046875 2.546875 -0.0859375 2.046875 -0.359375 C 1.554688 -0.628906 1.164062 -1.003906 0.875 -1.484375 C 0.59375 -1.960938 0.453125 -2.5 0.453125 -3.09375 C 0.453125 -3.6875 0.59375 -4.222656 0.875 -4.703125 C 1.164062 -5.191406 1.554688 -5.570312 2.046875 -5.84375 C 2.546875 -6.113281 3.109375 -6.25 3.734375 -6.25 C 4.203125 -6.25 4.632812 -6.171875 5.03125 -6.015625 C 5.425781 -5.867188 5.757812 -5.644531 6.03125 -5.34375 L 5.625 -4.9375 C 5.132812 -5.414062 4.515625 -5.65625 3.765625 -5.65625 C 3.253906 -5.65625 2.796875 -5.546875 2.390625 -5.328125 C 1.992188 -5.109375 1.679688 -4.800781 1.453125 -4.40625 C 1.222656 -4.019531 1.109375 -3.582031 1.109375 -3.09375 C 1.109375 -2.613281 1.222656 -2.175781 1.453125 -1.78125 C 1.679688 -1.394531 1.992188 -1.085938 2.390625 -0.859375 C 2.796875 -0.640625 3.25 -0.53125 3.75 -0.53125 C 4.382812 -0.53125 4.925781 -0.691406 5.375 -1.015625 Z M 5.375 -3.09375 "/></g></g></g><g fill="#532137" fill-opacity="1"><g transform="translate(187.774642, 223.546442)"><g><path d="M 5.390625 -0.5625 L 5.390625 0 L 1.015625 0 L 1.015625 -6.1875 L 5.25 -6.1875 L 5.25 -5.625 L 1.65625 -5.625 L 1.65625 -3.421875 L 4.859375 -3.421875 L 4.859375 -2.859375 L 1.65625 -2.859375 L 1.65625 -0.5625 Z M 5.390625 -0.5625 "/></g></g></g><g fill="#532137" fill-opacity="1"><g transform="translate(196.231595, 223.546442)"><g><path d="M 2.71875 0.046875 C 2.257812 0.046875 1.816406 -0.0234375 1.390625 -0.171875 C 0.972656 -0.316406 0.648438 -0.507812 0.421875 -0.75 L 0.671875 -1.25 C 0.898438 -1.03125 1.195312 -0.847656 1.5625 -0.703125 C 1.9375 -0.566406 2.320312 -0.5 2.71875 -0.5 C 3.269531 -0.5 3.679688 -0.597656 3.953125 -0.796875 C 4.234375 -1.003906 4.375 -1.269531 4.375 -1.59375 C 4.375 -1.84375 4.296875 -2.039062 4.140625 -2.1875 C 3.992188 -2.34375 3.8125 -2.457031 3.59375 -2.53125 C 3.375 -2.613281 3.070312 -2.703125 2.6875 -2.796875 C 2.21875 -2.910156 1.84375 -3.019531 1.5625 -3.125 C 1.289062 -3.238281 1.054688 -3.40625 0.859375 -3.625 C 0.660156 -3.851562 0.5625 -4.160156 0.5625 -4.546875 C 0.5625 -4.859375 0.644531 -5.140625 0.8125 -5.390625 C 0.976562 -5.648438 1.234375 -5.859375 1.578125 -6.015625 C 1.921875 -6.171875 2.34375 -6.25 2.84375 -6.25 C 3.195312 -6.25 3.539062 -6.195312 3.875 -6.09375 C 4.21875 -6 4.515625 -5.867188 4.765625 -5.703125 L 4.546875 -5.171875 C 4.285156 -5.347656 4.003906 -5.476562 3.703125 -5.5625 C 3.410156 -5.644531 3.125 -5.6875 2.84375 -5.6875 C 2.300781 -5.6875 1.894531 -5.582031 1.625 -5.375 C 1.351562 -5.164062 1.21875 -4.894531 1.21875 -4.5625 C 1.21875 -4.3125 1.289062 -4.109375 1.4375 -3.953125 C 1.582031 -3.804688 1.769531 -3.691406 2 -3.609375 C 2.226562 -3.535156 2.535156 -3.453125 2.921875 -3.359375 C 3.367188 -3.242188 3.734375 -3.128906 4.015625 -3.015625 C 4.296875 -2.910156 4.53125 -2.75 4.71875 -2.53125 C 4.914062 -2.3125 5.015625 -2.015625 5.015625 -1.640625 C 5.015625 -1.328125 4.929688 -1.039062 4.765625 -0.78125 C 4.597656 -0.519531 4.335938 -0.316406 3.984375 -0.171875 C 3.640625 -0.0234375 3.21875 0.046875 2.71875 0.046875 Z M 2.71875 0.046875 "/></g></g></g><g fill="#532137" fill-opacity="1"><g transform="translate(204.211454, 223.546442)"><g><path d="M 2.203125 -5.625 L 0.03125 -5.625 L 0.03125 -6.1875 L 5.046875 -6.1875 L 5.046875 -5.625 L 2.859375 -5.625 L 2.859375 0 L 2.203125 0 Z M 2.203125 -5.625 "/></g></g></g><g fill="#532137" fill-opacity="1"><g transform="translate(211.829077, 223.546442)"><g><path d="M 4.890625 -1.65625 L 1.4375 -1.65625 L 0.703125 0 L 0.015625 0 L 2.84375 -6.1875 L 3.5 -6.1875 L 6.328125 0 L 5.640625 0 Z M 4.65625 -2.1875 L 3.171875 -5.515625 L 1.6875 -2.1875 Z M 3.78125 -6.75 C 3.644531 -6.75 3.519531 -6.78125 3.40625 -6.84375 C 3.300781 -6.90625 3.1875 -6.988281 3.0625 -7.09375 C 2.957031 -7.1875 2.875 -7.25 2.8125 -7.28125 C 2.75 -7.320312 2.6875 -7.34375 2.625 -7.34375 C 2.488281 -7.34375 2.378906 -7.289062 2.296875 -7.1875 C 2.210938 -7.09375 2.164062 -6.957031 2.15625 -6.78125 L 1.78125 -6.78125 C 1.789062 -7.070312 1.863281 -7.304688 2 -7.484375 C 2.144531 -7.660156 2.335938 -7.75 2.578125 -7.75 C 2.710938 -7.75 2.832031 -7.71875 2.9375 -7.65625 C 3.039062 -7.601562 3.160156 -7.519531 3.296875 -7.40625 C 3.390625 -7.320312 3.46875 -7.257812 3.53125 -7.21875 C 3.59375 -7.175781 3.660156 -7.15625 3.734375 -7.15625 C 3.859375 -7.15625 3.960938 -7.203125 4.046875 -7.296875 C 4.128906 -7.398438 4.175781 -7.535156 4.1875 -7.703125 L 4.578125 -7.703125 C 4.554688 -7.410156 4.472656 -7.175781 4.328125 -7 C 4.191406 -6.832031 4.007812 -6.75 3.78125 -6.75 Z M 3.78125 -6.75 "/></g></g></g><g fill="#532137" fill-opacity="1"><g transform="translate(220.710105, 223.546442)"><g><path d="M 3.71875 0.046875 C 3.101562 0.046875 2.546875 -0.0859375 2.046875 -0.359375 C 1.546875 -0.628906 1.15625 -1.003906 0.875 -1.484375 C 0.59375 -1.960938 0.453125 -2.5 0.453125 -3.09375 C 0.453125 -3.6875 0.59375 -4.222656 0.875 -4.703125 C 1.15625 -5.179688 1.546875 -5.554688 2.046875 -5.828125 C 2.546875 -6.109375 3.101562 -6.25 3.71875 -6.25 C 4.332031 -6.25 4.882812 -6.113281 5.375 -5.84375 C 5.863281 -5.570312 6.25 -5.191406 6.53125 -4.703125 C 6.8125 -4.222656 6.953125 -3.6875 6.953125 -3.09375 C 6.953125 -2.5 6.8125 -1.960938 6.53125 -1.484375 C 6.25 -1.003906 5.863281 -0.628906 5.375 -0.359375 C 4.882812 -0.0859375 4.332031 0.046875 3.71875 0.046875 Z M 3.71875 -0.53125 C 4.207031 -0.53125 4.648438 -0.640625 5.046875 -0.859375 C 5.441406 -1.078125 5.75 -1.382812 5.96875 -1.78125 C 6.195312 -2.175781 6.3125 -2.613281 6.3125 -3.09375 C 6.3125 -3.582031 6.195312 -4.019531 5.96875 -4.40625 C 5.75 -4.800781 5.441406 -5.109375 5.046875 -5.328125 C 4.648438 -5.546875 4.207031 -5.65625 3.71875 -5.65625 C 3.226562 -5.65625 2.78125 -5.546875 2.375 -5.328125 C 1.976562 -5.109375 1.664062 -4.800781 1.4375 -4.40625 C 1.21875 -4.019531 1.109375 -3.582031 1.109375 -3.09375 C 1.109375 -2.613281 1.21875 -2.175781 1.4375 -1.78125 C 1.664062 -1.382812 1.976562 -1.078125 2.375 -0.859375 C 2.78125 -0.640625 3.226562 -0.53125 3.71875 -0.53125 Z M 3.71875 -0.53125 "/></g></g></g><g fill="#532137" fill-opacity="1"><g transform="translate(230.66902, 223.546442)"><g/></g></g><g fill="#532137" fill-opacity="1"><g transform="translate(235.530105, 223.546442)"><g><path d="M 1.015625 -6.1875 L 3.53125 -6.1875 C 4.1875 -6.1875 4.765625 -6.054688 5.265625 -5.796875 C 5.765625 -5.535156 6.148438 -5.171875 6.421875 -4.703125 C 6.703125 -4.234375 6.84375 -3.695312 6.84375 -3.09375 C 6.84375 -2.488281 6.703125 -1.953125 6.421875 -1.484375 C 6.148438 -1.015625 5.765625 -0.648438 5.265625 -0.390625 C 4.765625 -0.128906 4.1875 0 3.53125 0 L 1.015625 0 Z M 3.5 -0.5625 C 4.039062 -0.5625 4.515625 -0.671875 4.921875 -0.890625 C 5.328125 -1.109375 5.640625 -1.40625 5.859375 -1.78125 C 6.085938 -2.164062 6.203125 -2.601562 6.203125 -3.09375 C 6.203125 -3.59375 6.085938 -4.03125 5.859375 -4.40625 C 5.640625 -4.789062 5.328125 -5.085938 4.921875 -5.296875 C 4.515625 -5.515625 4.039062 -5.625 3.5 -5.625 L 1.65625 -5.625 L 1.65625 -0.5625 Z M 3.5 -0.5625 "/></g></g></g><g fill="#532137" fill-opacity="1"><g transform="translate(245.374152, 223.546442)"><g><path d="M 5.390625 -0.5625 L 5.390625 0 L 1.015625 0 L 1.015625 -6.1875 L 5.25 -6.1875 L 5.25 -5.625 L 1.65625 -5.625 L 1.65625 -3.421875 L 4.859375 -3.421875 L 4.859375 -2.859375 L 1.65625 -2.859375 L 1.65625 -0.5625 Z M 5.390625 -0.5625 "/></g></g></g><g fill="#532137" fill-opacity="1"><g transform="translate(253.831105, 223.546442)"><g/></g></g><g fill="#532137" fill-opacity="1"><g transform="translate(258.69219, 223.546442)"><g><path d="M 3.328125 -6.1875 C 4.117188 -6.1875 4.738281 -6 5.1875 -5.625 C 5.632812 -5.25 5.859375 -4.726562 5.859375 -4.0625 C 5.859375 -3.40625 5.632812 -2.890625 5.1875 -2.515625 C 4.738281 -2.140625 4.117188 -1.953125 3.328125 -1.953125 L 1.65625 -1.953125 L 1.65625 0 L 1.015625 0 L 1.015625 -6.1875 Z M 3.3125 -2.53125 C 3.925781 -2.53125 4.394531 -2.660156 4.71875 -2.921875 C 5.039062 -3.191406 5.203125 -3.570312 5.203125 -4.0625 C 5.203125 -4.5625 5.039062 -4.945312 4.71875 -5.21875 C 4.394531 -5.488281 3.925781 -5.625 3.3125 -5.625 L 1.65625 -5.625 L 1.65625 -2.53125 Z M 3.3125 -2.53125 "/></g></g></g><g fill="#532137" fill-opacity="1"><g transform="translate(267.582049, 223.546442)"><g><path d="M 5.390625 -0.5625 L 5.390625 0 L 1.015625 0 L 1.015625 -6.1875 L 5.25 -6.1875 L 5.25 -5.625 L 1.65625 -5.625 L 1.65625 -3.421875 L 4.859375 -3.421875 L 4.859375 -2.859375 L 1.65625 -2.859375 L 1.65625 -0.5625 Z M 5.390625 -0.5625 "/></g></g></g><g fill="#532137" fill-opacity="1"><g transform="translate(276.039002, 223.546442)"><g><path d="M 2.71875 0.046875 C 2.257812 0.046875 1.816406 -0.0234375 1.390625 -0.171875 C 0.972656 -0.316406 0.648438 -0.507812 0.421875 -0.75 L 0.671875 -1.25 C 0.898438 -1.03125 1.195312 -0.847656 1.5625 -0.703125 C 1.9375 -0.566406 2.320312 -0.5 2.71875 -0.5 C 3.269531 -0.5 3.679688 -0.597656 3.953125 -0.796875 C 4.234375 -1.003906 4.375 -1.269531 4.375 -1.59375 C 4.375 -1.84375 4.296875 -2.039062 4.140625 -2.1875 C 3.992188 -2.34375 3.8125 -2.457031 3.59375 -2.53125 C 3.375 -2.613281 3.070312 -2.703125 2.6875 -2.796875 C 2.21875 -2.910156 1.84375 -3.019531 1.5625 -3.125 C 1.289062 -3.238281 1.054688 -3.40625 0.859375 -3.625 C 0.660156 -3.851562 0.5625 -4.160156 0.5625 -4.546875 C 0.5625 -4.859375 0.644531 -5.140625 0.8125 -5.390625 C 0.976562 -5.648438 1.234375 -5.859375 1.578125 -6.015625 C 1.921875 -6.171875 2.34375 -6.25 2.84375 -6.25 C 3.195312 -6.25 3.539062 -6.195312 3.875 -6.09375 C 4.21875 -6 4.515625 -5.867188 4.765625 -5.703125 L 4.546875 -5.171875 C 4.285156 -5.347656 4.003906 -5.476562 3.703125 -5.5625 C 3.410156 -5.644531 3.125 -5.6875 2.84375 -5.6875 C 2.300781 -5.6875 1.894531 -5.582031 1.625 -5.375 C 1.351562 -5.164062 1.21875 -4.894531 1.21875 -4.5625 C 1.21875 -4.3125 1.289062 -4.109375 1.4375 -3.953125 C 1.582031 -3.804688 1.769531 -3.691406 2 -3.609375 C 2.226562 -3.535156 2.535156 -3.453125 2.921875 -3.359375 C 3.367188 -3.242188 3.734375 -3.128906 4.015625 -3.015625 C 4.296875 -2.910156 4.53125 -2.75 4.71875 -2.53125 C 4.914062 -2.3125 5.015625 -2.015625 5.015625 -1.640625 C 5.015625 -1.328125 4.929688 -1.039062 4.765625 -0.78125 C 4.597656 -0.519531 4.335938 -0.316406 3.984375 -0.171875 C 3.640625 -0.0234375 3.21875 0.046875 2.71875 0.046875 Z M 2.71875 0.046875 "/></g></g></g><g fill="#532137" fill-opacity="1"><g transform="translate(284.018861, 223.546442)"><g><path d="M 2.71875 0.046875 C 2.257812 0.046875 1.816406 -0.0234375 1.390625 -0.171875 C 0.972656 -0.316406 0.648438 -0.507812 0.421875 -0.75 L 0.671875 -1.25 C 0.898438 -1.03125 1.195312 -0.847656 1.5625 -0.703125 C 1.9375 -0.566406 2.320312 -0.5 2.71875 -0.5 C 3.269531 -0.5 3.679688 -0.597656 3.953125 -0.796875 C 4.234375 -1.003906 4.375 -1.269531 4.375 -1.59375 C 4.375 -1.84375 4.296875 -2.039062 4.140625 -2.1875 C 3.992188 -2.34375 3.8125 -2.457031 3.59375 -2.53125 C 3.375 -2.613281 3.070312 -2.703125 2.6875 -2.796875 C 2.21875 -2.910156 1.84375 -3.019531 1.5625 -3.125 C 1.289062 -3.238281 1.054688 -3.40625 0.859375 -3.625 C 0.660156 -3.851562 0.5625 -4.160156 0.5625 -4.546875 C 0.5625 -4.859375 0.644531 -5.140625 0.8125 -5.390625 C 0.976562 -5.648438 1.234375 -5.859375 1.578125 -6.015625 C 1.921875 -6.171875 2.34375 -6.25 2.84375 -6.25 C 3.195312 -6.25 3.539062 -6.195312 3.875 -6.09375 C 4.21875 -6 4.515625 -5.867188 4.765625 -5.703125 L 4.546875 -5.171875 C 4.285156 -5.347656 4.003906 -5.476562 3.703125 -5.5625 C 3.410156 -5.644531 3.125 -5.6875 2.84375 -5.6875 C 2.300781 -5.6875 1.894531 -5.582031 1.625 -5.375 C 1.351562 -5.164062 1.21875 -4.894531 1.21875 -4.5625 C 1.21875 -4.3125 1.289062 -4.109375 1.4375 -3.953125 C 1.582031 -3.804688 1.769531 -3.691406 2 -3.609375 C 2.226562 -3.535156 2.535156 -3.453125 2.921875 -3.359375 C 3.367188 -3.242188 3.734375 -3.128906 4.015625 -3.015625 C 4.296875 -2.910156 4.53125 -2.75 4.71875 -2.53125 C 4.914062 -2.3125 5.015625 -2.015625 5.015625 -1.640625 C 5.015625 -1.328125 4.929688 -1.039062 4.765625 -0.78125 C 4.597656 -0.519531 4.335938 -0.316406 3.984375 -0.171875 C 3.640625 -0.0234375 3.21875 0.046875 2.71875 0.046875 Z M 2.71875 0.046875 "/></g></g></g><g fill="#532137" fill-opacity="1"><g transform="translate(291.998719, 223.546442)"><g><path d="M 3.71875 0.046875 C 3.101562 0.046875 2.546875 -0.0859375 2.046875 -0.359375 C 1.546875 -0.628906 1.15625 -1.003906 0.875 -1.484375 C 0.59375 -1.960938 0.453125 -2.5 0.453125 -3.09375 C 0.453125 -3.6875 0.59375 -4.222656 0.875 -4.703125 C 1.15625 -5.179688 1.546875 -5.554688 2.046875 -5.828125 C 2.546875 -6.109375 3.101562 -6.25 3.71875 -6.25 C 4.332031 -6.25 4.882812 -6.113281 5.375 -5.84375 C 5.863281 -5.570312 6.25 -5.191406 6.53125 -4.703125 C 6.8125 -4.222656 6.953125 -3.6875 6.953125 -3.09375 C 6.953125 -2.5 6.8125 -1.960938 6.53125 -1.484375 C 6.25 -1.003906 5.863281 -0.628906 5.375 -0.359375 C 4.882812 -0.0859375 4.332031 0.046875 3.71875 0.046875 Z M 3.71875 -0.53125 C 4.207031 -0.53125 4.648438 -0.640625 5.046875 -0.859375 C 5.441406 -1.078125 5.75 -1.382812 5.96875 -1.78125 C 6.195312 -2.175781 6.3125 -2.613281 6.3125 -3.09375 C 6.3125 -3.582031 6.195312 -4.019531 5.96875 -4.40625 C 5.75 -4.800781 5.441406 -5.109375 5.046875 -5.328125 C 4.648438 -5.546875 4.207031 -5.65625 3.71875 -5.65625 C 3.226562 -5.65625 2.78125 -5.546875 2.375 -5.328125 C 1.976562 -5.109375 1.664062 -4.800781 1.4375 -4.40625 C 1.21875 -4.019531 1.109375 -3.582031 1.109375 -3.09375 C 1.109375 -2.613281 1.21875 -2.175781 1.4375 -1.78125 C 1.664062 -1.382812 1.976562 -1.078125 2.375 -0.859375 C 2.78125 -0.640625 3.226562 -0.53125 3.71875 -0.53125 Z M 3.71875 -0.53125 "/></g></g></g><g fill="#532137" fill-opacity="1"><g transform="translate(301.957634, 223.546442)"><g><path d="M 4.890625 -1.65625 L 1.4375 -1.65625 L 0.703125 0 L 0.015625 0 L 2.84375 -6.1875 L 3.5 -6.1875 L 6.328125 0 L 5.640625 0 Z M 4.65625 -2.1875 L 3.171875 -5.515625 L 1.6875 -2.1875 Z M 4.65625 -2.1875 "/></g></g></g><g fill="#532137" fill-opacity="1"><g transform="translate(310.838663, 223.546442)"><g><path d="M 2.71875 0.046875 C 2.257812 0.046875 1.816406 -0.0234375 1.390625 -0.171875 C 0.972656 -0.316406 0.648438 -0.507812 0.421875 -0.75 L 0.671875 -1.25 C 0.898438 -1.03125 1.195312 -0.847656 1.5625 -0.703125 C 1.9375 -0.566406 2.320312 -0.5 2.71875 -0.5 C 3.269531 -0.5 3.679688 -0.597656 3.953125 -0.796875 C 4.234375 -1.003906 4.375 -1.269531 4.375 -1.59375 C 4.375 -1.84375 4.296875 -2.039062 4.140625 -2.1875 C 3.992188 -2.34375 3.8125 -2.457031 3.59375 -2.53125 C 3.375 -2.613281 3.070312 -2.703125 2.6875 -2.796875 C 2.21875 -2.910156 1.84375 -3.019531 1.5625 -3.125 C 1.289062 -3.238281 1.054688 -3.40625 0.859375 -3.625 C 0.660156 -3.851562 0.5625 -4.160156 0.5625 -4.546875 C 0.5625 -4.859375 0.644531 -5.140625 0.8125 -5.390625 C 0.976562 -5.648438 1.234375 -5.859375 1.578125 -6.015625 C 1.921875 -6.171875 2.34375 -6.25 2.84375 -6.25 C 3.195312 -6.25 3.539062 -6.195312 3.875 -6.09375 C 4.21875 -6 4.515625 -5.867188 4.765625 -5.703125 L 4.546875 -5.171875 C 4.285156 -5.347656 4.003906 -5.476562 3.703125 -5.5625 C 3.410156 -5.644531 3.125 -5.6875 2.84375 -5.6875 C 2.300781 -5.6875 1.894531 -5.582031 1.625 -5.375 C 1.351562 -5.164062 1.21875 -4.894531 1.21875 -4.5625 C 1.21875 -4.3125 1.289062 -4.109375 1.4375 -3.953125 C 1.582031 -3.804688 1.769531 -3.691406 2 -3.609375 C 2.226562 -3.535156 2.535156 -3.453125 2.921875 -3.359375 C 3.367188 -3.242188 3.734375 -3.128906 4.015625 -3.015625 C 4.296875 -2.910156 4.53125 -2.75 4.71875 -2.53125 C 4.914062 -2.3125 5.015625 -2.015625 5.015625 -1.640625 C 5.015625 -1.328125 4.929688 -1.039062 4.765625 -0.78125 C 4.597656 -0.519531 4.335938 -0.316406 3.984375 -0.171875 C 3.640625 -0.0234375 3.21875 0.046875 2.71875 0.046875 Z M 2.71875 0.046875 "/></g></g></g><g fill="#532137" fill-opacity="1"><g transform="translate(318.82152, 223.546442)"><g/></g></g></svg>