<svg xmlns="http://www.w3.org/2000/svg" xmlns:xlink="http://www.w3.org/1999/xlink" width="500" zoomAndPan="magnify" viewBox="0 0 375 374.999991" height="500" preserveAspectRatio="xMidYMid meet" version="1.0"><defs><g/><clipPath id="d4ebf4750e"><path d="M 147.175781 126.902344 L 228 126.902344 L 228 198 L 147.175781 198 Z M 147.175781 126.902344 " clip-rule="nonzero"/></clipPath></defs><g fill="#ebe8e5" fill-opacity="1"><g transform="translate(72.648967, 250.752599)"><g><path d="M 23.6875 -40.78125 L 40.140625 0 L 30.15625 0 L 27.140625 -8.15625 L 11.625 -8.15625 L 8.609375 0 L -1.390625 0 L 15.078125 -40.78125 Z M 23.984375 -16.3125 L 19.421875 -28.171875 L 19.328125 -28.171875 L 14.78125 -16.3125 Z M 23.984375 -16.3125 "/></g></g></g><g fill="#ebe8e5" fill-opacity="1"><g transform="translate(111.40064, 250.752599)"><g><path d="M 4.453125 -25.359375 L 4.453125 -30.75 C 4.484375 -34.539062 5.367188 -37.570312 7.109375 -39.84375 C 8.859375 -42.125 11.285156 -43.265625 14.390625 -43.265625 C 15.703125 -43.265625 16.957031 -43.070312 18.15625 -42.6875 C 19.363281 -42.3125 20.234375 -41.925781 20.765625 -41.53125 L 21.609375 -40.984375 L 18.546875 -34.796875 C 17.753906 -35.265625 16.878906 -35.5 15.921875 -35.5 C 14.828125 -35.5 14.097656 -35.125 13.734375 -34.375 C 13.378906 -33.632812 13.203125 -32.34375 13.203125 -30.5 L 13.203125 -25.359375 L 19.03125 -25.359375 L 19.03125 -18.6875 L 13.203125 -18.6875 L 13.203125 0 L 4.453125 0 L 4.453125 -18.6875 L 0.796875 -18.6875 L 0.796875 -25.359375 Z M 4.453125 -25.359375 "/></g></g></g><g fill="#ebe8e5" fill-opacity="1"><g transform="translate(129.936197, 250.752599)"><g><path d="M 4.453125 -25.359375 L 4.453125 -30.75 C 4.484375 -34.539062 5.367188 -37.570312 7.109375 -39.84375 C 8.859375 -42.125 11.285156 -43.265625 14.390625 -43.265625 C 15.703125 -43.265625 16.957031 -43.070312 18.15625 -42.6875 C 19.363281 -42.3125 20.234375 -41.925781 20.765625 -41.53125 L 21.609375 -40.984375 L 18.546875 -34.796875 C 17.753906 -35.265625 16.878906 -35.5 15.921875 -35.5 C 14.828125 -35.5 14.097656 -35.125 13.734375 -34.375 C 13.378906 -33.632812 13.203125 -32.34375 13.203125 -30.5 L 13.203125 -25.359375 L 19.03125 -25.359375 L 19.03125 -18.6875 L 13.203125 -18.6875 L 13.203125 0 L 4.453125 0 L 4.453125 -18.6875 L 0.796875 -18.6875 L 0.796875 -25.359375 Z M 4.453125 -25.359375 "/></g></g></g><g fill="#ebe8e5" fill-opacity="1"><g transform="translate(148.471754, 250.752599)"><g><path d="M 28.625 -11.46875 L 10.234375 -11.46875 C 10.234375 -9.6875 10.804688 -8.367188 11.953125 -7.515625 C 13.109375 -6.660156 14.363281 -6.234375 15.71875 -6.234375 C 17.132812 -6.234375 18.253906 -6.421875 19.078125 -6.796875 C 19.898438 -7.171875 20.84375 -7.921875 21.90625 -9.046875 L 28.234375 -5.890625 C 25.597656 -1.472656 21.210938 0.734375 15.078125 0.734375 C 11.253906 0.734375 7.972656 -0.570312 5.234375 -3.1875 C 2.503906 -5.8125 1.140625 -8.96875 1.140625 -12.65625 C 1.140625 -16.34375 2.503906 -19.503906 5.234375 -22.140625 C 7.972656 -24.785156 11.253906 -26.109375 15.078125 -26.109375 C 19.097656 -26.109375 22.367188 -24.941406 24.890625 -22.609375 C 27.410156 -20.285156 28.671875 -16.96875 28.671875 -12.65625 C 28.671875 -12.0625 28.65625 -11.664062 28.625 -11.46875 Z M 10.484375 -16.3125 L 20.125 -16.3125 C 19.925781 -17.632812 19.40625 -18.648438 18.5625 -19.359375 C 17.71875 -20.066406 16.640625 -20.421875 15.328125 -20.421875 C 13.878906 -20.421875 12.722656 -20.039062 11.859375 -19.28125 C 11.003906 -18.519531 10.546875 -17.53125 10.484375 -16.3125 Z M 10.484375 -16.3125 "/></g></g></g><g fill="#ebe8e5" fill-opacity="1"><g transform="translate(178.276931, 250.752599)"><g><path d="M 16.46875 -18.9375 C 14.8125 -18.9375 13.390625 -18.328125 12.203125 -17.109375 C 11.023438 -15.890625 10.4375 -14.421875 10.4375 -12.703125 C 10.4375 -10.953125 11.023438 -9.46875 12.203125 -8.25 C 13.390625 -7.03125 14.8125 -6.421875 16.46875 -6.421875 C 17.257812 -6.421875 18.007812 -6.519531 18.71875 -6.71875 C 19.425781 -6.914062 19.941406 -7.113281 20.265625 -7.3125 L 20.71875 -7.609375 L 23.6875 -1.53125 C 23.445312 -1.363281 23.117188 -1.15625 22.703125 -0.90625 C 22.296875 -0.664062 21.359375 -0.332031 19.890625 0.09375 C 18.429688 0.519531 16.859375 0.734375 15.171875 0.734375 C 11.453125 0.734375 8.179688 -0.570312 5.359375 -3.1875 C 2.546875 -5.8125 1.140625 -8.953125 1.140625 -12.609375 C 1.140625 -16.296875 2.546875 -19.46875 5.359375 -22.125 C 8.179688 -24.78125 11.453125 -26.109375 15.171875 -26.109375 C 16.859375 -26.109375 18.410156 -25.910156 19.828125 -25.515625 C 21.242188 -25.117188 22.25 -24.722656 22.84375 -24.328125 L 23.6875 -23.734375 L 20.71875 -17.75 C 19.625 -18.539062 18.207031 -18.9375 16.46875 -18.9375 Z M 16.46875 -18.9375 "/></g></g></g><g fill="#ebe8e5" fill-opacity="1"><g transform="translate(202.54616, 250.752599)"><g><path d="M 4.453125 -25.359375 L 4.453125 -34.796875 L 13.203125 -34.796875 L 13.203125 -25.359375 L 18.546875 -25.359375 L 18.546875 -18.6875 L 13.203125 -18.6875 L 13.203125 -10.625 C 13.203125 -8.289062 13.859375 -7.125 15.171875 -7.125 C 15.503906 -7.125 15.851562 -7.1875 16.21875 -7.3125 C 16.582031 -7.445312 16.863281 -7.582031 17.0625 -7.71875 L 17.359375 -7.90625 L 19.53125 -0.84375 C 17.644531 0.207031 15.5 0.734375 13.09375 0.734375 C 11.445312 0.734375 10.03125 0.445312 8.84375 -0.125 C 7.65625 -0.695312 6.753906 -1.46875 6.140625 -2.4375 C 5.535156 -3.414062 5.101562 -4.441406 4.84375 -5.515625 C 4.582031 -6.585938 4.453125 -7.734375 4.453125 -8.953125 L 4.453125 -18.6875 L 0.796875 -18.6875 L 0.796875 -25.359375 Z M 4.453125 -25.359375 "/></g></g></g><g fill="#ebe8e5" fill-opacity="1"><g transform="translate(222.070281, 250.752599)"><g><path d="M 3.8125 -39.5 C 4.832031 -40.519531 6.050781 -41.03125 7.46875 -41.03125 C 8.882812 -41.03125 10.101562 -40.519531 11.125 -39.5 C 12.144531 -38.476562 12.65625 -37.257812 12.65625 -35.84375 C 12.65625 -34.425781 12.144531 -33.207031 11.125 -32.1875 C 10.101562 -31.164062 8.882812 -30.65625 7.46875 -30.65625 C 6.050781 -30.65625 4.832031 -31.164062 3.8125 -32.1875 C 2.789062 -33.207031 2.28125 -34.425781 2.28125 -35.84375 C 2.28125 -37.257812 2.789062 -38.476562 3.8125 -39.5 Z M 2.96875 -25.359375 L 2.96875 0 L 11.71875 0 L 11.71875 -25.359375 Z M 2.96875 -25.359375 "/></g></g></g><g fill="#ebe8e5" fill-opacity="1"><g transform="translate(236.997573, 250.752599)"><g><path d="M 5.359375 -3.015625 C 2.546875 -5.515625 1.140625 -8.726562 1.140625 -12.65625 C 1.140625 -16.582031 2.601562 -19.804688 5.53125 -22.328125 C 8.46875 -24.847656 12.09375 -26.109375 16.40625 -26.109375 C 20.664062 -26.109375 24.253906 -24.835938 27.171875 -22.296875 C 30.085938 -19.753906 31.546875 -16.539062 31.546875 -12.65625 C 31.546875 -8.769531 30.117188 -5.566406 27.265625 -3.046875 C 24.410156 -0.523438 20.789062 0.734375 16.40625 0.734375 C 11.863281 0.734375 8.179688 -0.515625 5.359375 -3.015625 Z M 12.140625 -16.953125 C 11.003906 -15.835938 10.4375 -14.40625 10.4375 -12.65625 C 10.4375 -10.90625 10.976562 -9.476562 12.0625 -8.375 C 13.144531 -7.269531 14.578125 -6.71875 16.359375 -6.71875 C 18.078125 -6.71875 19.488281 -7.273438 20.59375 -8.390625 C 21.695312 -9.515625 22.25 -10.9375 22.25 -12.65625 C 22.25 -14.40625 21.675781 -15.835938 20.53125 -16.953125 C 19.394531 -18.078125 18.003906 -18.640625 16.359375 -18.640625 C 14.679688 -18.640625 13.273438 -18.078125 12.140625 -16.953125 Z M 12.140625 -16.953125 "/></g></g></g><g fill="#ebe8e5" fill-opacity="1"><g transform="translate(269.66959, 250.752599)"><g><path d="M 2.96875 0 L 2.96875 -25.359375 L 11.71875 -25.359375 L 11.71875 -22.6875 L 11.8125 -22.6875 C 14.09375 -24.96875 16.515625 -26.109375 19.078125 -26.109375 C 20.335938 -26.109375 21.582031 -25.941406 22.8125 -25.609375 C 24.050781 -25.273438 25.238281 -24.757812 26.375 -24.0625 C 27.507812 -23.375 28.429688 -22.394531 29.140625 -21.125 C 29.847656 -19.863281 30.203125 -18.390625 30.203125 -16.703125 L 30.203125 0 L 21.453125 0 L 21.453125 -14.34375 C 21.453125 -15.65625 21.03125 -16.804688 20.1875 -17.796875 C 19.351562 -18.785156 18.257812 -19.28125 16.90625 -19.28125 C 15.59375 -19.28125 14.398438 -18.769531 13.328125 -17.75 C 12.253906 -16.726562 11.71875 -15.59375 11.71875 -14.34375 L 11.71875 0 Z M 2.96875 0 "/></g></g></g><g fill="#ebe8e5" fill-opacity="1"><g transform="translate(62.226893, 267.540853)"><g><path d="M 3.703125 0.046875 C 3.085938 0.046875 2.53125 -0.0859375 2.03125 -0.359375 C 1.539062 -0.628906 1.15625 -1.003906 0.875 -1.484375 C 0.59375 -1.960938 0.453125 -2.5 0.453125 -3.09375 C 0.453125 -3.6875 0.59375 -4.222656 0.875 -4.703125 C 1.15625 -5.191406 1.539062 -5.570312 2.03125 -5.84375 C 2.53125 -6.113281 3.085938 -6.25 3.703125 -6.25 C 4.160156 -6.25 4.582031 -6.171875 4.96875 -6.015625 C 5.363281 -5.859375 5.695312 -5.632812 5.96875 -5.34375 L 5.546875 -4.921875 C 5.066406 -5.410156 4.457031 -5.65625 3.71875 -5.65625 C 3.226562 -5.65625 2.78125 -5.539062 2.375 -5.3125 C 1.976562 -5.09375 1.664062 -4.789062 1.4375 -4.40625 C 1.21875 -4.019531 1.109375 -3.582031 1.109375 -3.09375 C 1.109375 -2.613281 1.21875 -2.175781 1.4375 -1.78125 C 1.664062 -1.394531 1.976562 -1.085938 2.375 -0.859375 C 2.78125 -0.640625 3.226562 -0.53125 3.71875 -0.53125 C 4.46875 -0.53125 5.078125 -0.78125 5.546875 -1.28125 L 5.96875 -0.859375 C 5.695312 -0.566406 5.363281 -0.34375 4.96875 -0.1875 C 4.582031 -0.03125 4.160156 0.046875 3.703125 0.046875 Z M 3.703125 0.046875 "/></g></g></g><g fill="#ebe8e5" fill-opacity="1"><g transform="translate(71.125598, 267.540853)"><g><path d="M 3.71875 0.046875 C 3.101562 0.046875 2.546875 -0.0859375 2.046875 -0.359375 C 1.546875 -0.628906 1.15625 -1.003906 0.875 -1.484375 C 0.59375 -1.960938 0.453125 -2.5 0.453125 -3.09375 C 0.453125 -3.6875 0.59375 -4.222656 0.875 -4.703125 C 1.15625 -5.179688 1.546875 -5.554688 2.046875 -5.828125 C 2.546875 -6.109375 3.101562 -6.25 3.71875 -6.25 C 4.332031 -6.25 4.882812 -6.113281 5.375 -5.84375 C 5.863281 -5.570312 6.25 -5.191406 6.53125 -4.703125 C 6.8125 -4.222656 6.953125 -3.6875 6.953125 -3.09375 C 6.953125 -2.5 6.8125 -1.960938 6.53125 -1.484375 C 6.25 -1.003906 5.863281 -0.628906 5.375 -0.359375 C 4.882812 -0.0859375 4.332031 0.046875 3.71875 0.046875 Z M 3.71875 -0.53125 C 4.207031 -0.53125 4.648438 -0.640625 5.046875 -0.859375 C 5.441406 -1.078125 5.75 -1.382812 5.96875 -1.78125 C 6.195312 -2.175781 6.3125 -2.613281 6.3125 -3.09375 C 6.3125 -3.582031 6.195312 -4.019531 5.96875 -4.40625 C 5.75 -4.800781 5.441406 -5.109375 5.046875 -5.328125 C 4.648438 -5.546875 4.207031 -5.65625 3.71875 -5.65625 C 3.226562 -5.65625 2.78125 -5.546875 2.375 -5.328125 C 1.976562 -5.109375 1.664062 -4.800781 1.4375 -4.40625 C 1.21875 -4.019531 1.109375 -3.582031 1.109375 -3.09375 C 1.109375 -2.613281 1.21875 -2.175781 1.4375 -1.78125 C 1.664062 -1.382812 1.976562 -1.078125 2.375 -0.859375 C 2.78125 -0.640625 3.226562 -0.53125 3.71875 -0.53125 Z M 3.71875 -0.53125 "/></g></g></g><g fill="#ebe8e5" fill-opacity="1"><g transform="translate(81.08451, 267.540853)"><g><path d="M 6.1875 -6.1875 L 6.1875 0 L 5.640625 0 L 1.65625 -5.015625 L 1.65625 0 L 1.015625 0 L 1.015625 -6.1875 L 1.546875 -6.1875 L 5.53125 -1.171875 L 5.53125 -6.1875 Z M 6.1875 -6.1875 "/></g></g></g><g fill="#ebe8e5" fill-opacity="1"><g transform="translate(90.813706, 267.540853)"><g><path d="M 2.71875 0.046875 C 2.257812 0.046875 1.816406 -0.0234375 1.390625 -0.171875 C 0.972656 -0.316406 0.648438 -0.507812 0.421875 -0.75 L 0.671875 -1.25 C 0.898438 -1.03125 1.195312 -0.847656 1.5625 -0.703125 C 1.9375 -0.566406 2.320312 -0.5 2.71875 -0.5 C 3.269531 -0.5 3.679688 -0.597656 3.953125 -0.796875 C 4.234375 -1.003906 4.375 -1.269531 4.375 -1.59375 C 4.375 -1.84375 4.296875 -2.039062 4.140625 -2.1875 C 3.992188 -2.34375 3.8125 -2.457031 3.59375 -2.53125 C 3.375 -2.613281 3.070312 -2.703125 2.6875 -2.796875 C 2.21875 -2.910156 1.84375 -3.019531 1.5625 -3.125 C 1.289062 -3.238281 1.054688 -3.40625 0.859375 -3.625 C 0.660156 -3.851562 0.5625 -4.160156 0.5625 -4.546875 C 0.5625 -4.859375 0.644531 -5.140625 0.8125 -5.390625 C 0.976562 -5.648438 1.234375 -5.859375 1.578125 -6.015625 C 1.921875 -6.171875 2.34375 -6.25 2.84375 -6.25 C 3.195312 -6.25 3.539062 -6.195312 3.875 -6.09375 C 4.21875 -6 4.515625 -5.867188 4.765625 -5.703125 L 4.546875 -5.171875 C 4.285156 -5.347656 4.003906 -5.476562 3.703125 -5.5625 C 3.410156 -5.644531 3.125 -5.6875 2.84375 -5.6875 C 2.300781 -5.6875 1.894531 -5.582031 1.625 -5.375 C 1.351562 -5.164062 1.21875 -4.894531 1.21875 -4.5625 C 1.21875 -4.3125 1.289062 -4.109375 1.4375 -3.953125 C 1.582031 -3.804688 1.769531 -3.691406 2 -3.609375 C 2.226562 -3.535156 2.535156 -3.453125 2.921875 -3.359375 C 3.367188 -3.242188 3.734375 -3.128906 4.015625 -3.015625 C 4.296875 -2.910156 4.53125 -2.75 4.71875 -2.53125 C 4.914062 -2.3125 5.015625 -2.015625 5.015625 -1.640625 C 5.015625 -1.328125 4.929688 -1.039062 4.765625 -0.78125 C 4.597656 -0.519531 4.335938 -0.316406 3.984375 -0.171875 C 3.640625 -0.0234375 3.21875 0.046875 2.71875 0.046875 Z M 2.71875 0.046875 "/></g></g></g><g fill="#ebe8e5" fill-opacity="1"><g transform="translate(98.793562, 267.540853)"><g><path d="M 3.5 0.046875 C 2.695312 0.046875 2.070312 -0.179688 1.625 -0.640625 C 1.175781 -1.097656 0.953125 -1.765625 0.953125 -2.640625 L 0.953125 -6.1875 L 1.609375 -6.1875 L 1.609375 -2.671875 C 1.609375 -1.953125 1.769531 -1.414062 2.09375 -1.0625 C 2.414062 -0.707031 2.882812 -0.53125 3.5 -0.53125 C 4.125 -0.53125 4.597656 -0.707031 4.921875 -1.0625 C 5.242188 -1.414062 5.40625 -1.953125 5.40625 -2.671875 L 5.40625 -6.1875 L 6.046875 -6.1875 L 6.046875 -2.640625 C 6.046875 -1.765625 5.820312 -1.097656 5.375 -0.640625 C 4.925781 -0.179688 4.300781 0.046875 3.5 0.046875 Z M 3.5 0.046875 "/></g></g></g><g fill="#ebe8e5" fill-opacity="1"><g transform="translate(108.337218, 267.540853)"><g><path d="M 1.015625 -6.1875 L 1.65625 -6.1875 L 1.65625 -0.5625 L 5.125 -0.5625 L 5.125 0 L 1.015625 0 Z M 1.015625 -6.1875 "/></g></g></g><g fill="#ebe8e5" fill-opacity="1"><g transform="translate(116.087364, 267.540853)"><g><path d="M 2.203125 -5.625 L 0.03125 -5.625 L 0.03125 -6.1875 L 5.046875 -6.1875 L 5.046875 -5.625 L 2.859375 -5.625 L 2.859375 0 L 2.203125 0 Z M 2.203125 -5.625 "/></g></g></g><g fill="#ebe8e5" fill-opacity="1"><g transform="translate(123.704983, 267.540853)"><g><path d="M 3.71875 0.046875 C 3.101562 0.046875 2.546875 -0.0859375 2.046875 -0.359375 C 1.546875 -0.628906 1.15625 -1.003906 0.875 -1.484375 C 0.59375 -1.960938 0.453125 -2.5 0.453125 -3.09375 C 0.453125 -3.6875 0.59375 -4.222656 0.875 -4.703125 C 1.15625 -5.179688 1.546875 -5.554688 2.046875 -5.828125 C 2.546875 -6.109375 3.101562 -6.25 3.71875 -6.25 C 4.332031 -6.25 4.882812 -6.113281 5.375 -5.84375 C 5.863281 -5.570312 6.25 -5.191406 6.53125 -4.703125 C 6.8125 -4.222656 6.953125 -3.6875 6.953125 -3.09375 C 6.953125 -2.5 6.8125 -1.960938 6.53125 -1.484375 C 6.25 -1.003906 5.863281 -0.628906 5.375 -0.359375 C 4.882812 -0.0859375 4.332031 0.046875 3.71875 0.046875 Z M 3.71875 -0.53125 C 4.207031 -0.53125 4.648438 -0.640625 5.046875 -0.859375 C 5.441406 -1.078125 5.75 -1.382812 5.96875 -1.78125 C 6.195312 -2.175781 6.3125 -2.613281 6.3125 -3.09375 C 6.3125 -3.582031 6.195312 -4.019531 5.96875 -4.40625 C 5.75 -4.800781 5.441406 -5.109375 5.046875 -5.328125 C 4.648438 -5.546875 4.207031 -5.65625 3.71875 -5.65625 C 3.226562 -5.65625 2.78125 -5.546875 2.375 -5.328125 C 1.976562 -5.109375 1.664062 -4.800781 1.4375 -4.40625 C 1.21875 -4.019531 1.109375 -3.582031 1.109375 -3.09375 C 1.109375 -2.613281 1.21875 -2.175781 1.4375 -1.78125 C 1.664062 -1.382812 1.976562 -1.078125 2.375 -0.859375 C 2.78125 -0.640625 3.226562 -0.53125 3.71875 -0.53125 Z M 3.71875 -0.53125 "/></g></g></g><g fill="#ebe8e5" fill-opacity="1"><g transform="translate(133.663893, 267.540853)"><g><path d="M 5.234375 0 L 3.828125 -1.984375 C 3.660156 -1.972656 3.492188 -1.96875 3.328125 -1.96875 L 1.65625 -1.96875 L 1.65625 0 L 1.015625 0 L 1.015625 -6.1875 L 3.328125 -6.1875 C 4.117188 -6.1875 4.738281 -6 5.1875 -5.625 C 5.632812 -5.25 5.859375 -4.726562 5.859375 -4.0625 C 5.859375 -3.582031 5.734375 -3.175781 5.484375 -2.84375 C 5.242188 -2.507812 4.894531 -2.269531 4.4375 -2.125 L 5.953125 0 Z M 3.3125 -2.515625 C 3.925781 -2.515625 4.394531 -2.648438 4.71875 -2.921875 C 5.039062 -3.191406 5.203125 -3.570312 5.203125 -4.0625 C 5.203125 -4.5625 5.039062 -4.945312 4.71875 -5.21875 C 4.394531 -5.488281 3.925781 -5.625 3.3125 -5.625 L 1.65625 -5.625 L 1.65625 -2.515625 Z M 3.3125 -2.515625 "/></g></g></g><g fill="#ebe8e5" fill-opacity="1"><g transform="translate(142.59794, 267.540853)"><g><path d="M 1.015625 -6.1875 L 1.65625 -6.1875 L 1.65625 0 L 1.015625 0 Z M 1.015625 -6.1875 "/></g></g></g><g fill="#ebe8e5" fill-opacity="1"><g transform="translate(147.812431, 267.540853)"><g><path d="M 4.890625 -1.65625 L 1.4375 -1.65625 L 0.703125 0 L 0.015625 0 L 2.84375 -6.1875 L 3.5 -6.1875 L 6.328125 0 L 5.640625 0 Z M 4.65625 -2.1875 L 3.171875 -5.515625 L 1.6875 -2.1875 Z M 4.65625 -2.1875 "/></g></g></g><g fill="#ebe8e5" fill-opacity="1"><g transform="translate(156.693468, 267.540853)"><g/></g></g><g fill="#ebe8e5" fill-opacity="1"><g transform="translate(161.554554, 267.540853)"><g><path d="M 5.390625 -0.5625 L 5.390625 0 L 1.015625 0 L 1.015625 -6.1875 L 5.25 -6.1875 L 5.25 -5.625 L 1.65625 -5.625 L 1.65625 -3.421875 L 4.859375 -3.421875 L 4.859375 -2.859375 L 1.65625 -2.859375 L 1.65625 -0.5625 Z M 5.390625 -0.5625 "/></g></g></g><g fill="#ebe8e5" fill-opacity="1"><g transform="translate(170.011507, 267.540853)"><g><path d="M 7.4375 -6.1875 L 7.4375 0 L 6.8125 0 L 6.8125 -4.953125 L 4.375 -0.78125 L 4.0625 -0.78125 L 1.640625 -4.921875 L 1.640625 0 L 1.015625 0 L 1.015625 -6.1875 L 1.546875 -6.1875 L 4.234375 -1.59375 L 6.890625 -6.1875 Z M 7.4375 -6.1875 "/></g></g></g><g fill="#ebe8e5" fill-opacity="1"><g transform="translate(180.99528, 267.540853)"><g/></g></g><g fill="#ebe8e5" fill-opacity="1"><g transform="translate(185.856365, 267.540853)"><g><path d="M 5.375 -3.09375 L 6 -3.09375 L 6 -0.734375 C 5.707031 -0.484375 5.363281 -0.289062 4.96875 -0.15625 C 4.570312 -0.0195312 4.15625 0.046875 3.71875 0.046875 C 3.101562 0.046875 2.546875 -0.0859375 2.046875 -0.359375 C 1.554688 -0.628906 1.164062 -1.003906 0.875 -1.484375 C 0.59375 -1.960938 0.453125 -2.5 0.453125 -3.09375 C 0.453125 -3.6875 0.59375 -4.222656 0.875 -4.703125 C 1.164062 -5.191406 1.554688 -5.570312 2.046875 -5.84375 C 2.546875 -6.113281 3.109375 -6.25 3.734375 -6.25 C 4.203125 -6.25 4.632812 -6.171875 5.03125 -6.015625 C 5.425781 -5.867188 5.757812 -5.644531 6.03125 -5.34375 L 5.625 -4.9375 C 5.132812 -5.414062 4.515625 -5.65625 3.765625 -5.65625 C 3.253906 -5.65625 2.796875 -5.546875 2.390625 -5.328125 C 1.992188 -5.109375 1.679688 -4.800781 1.453125 -4.40625 C 1.222656 -4.019531 1.109375 -3.582031 1.109375 -3.09375 C 1.109375 -2.613281 1.222656 -2.175781 1.453125 -1.78125 C 1.679688 -1.394531 1.992188 -1.085938 2.390625 -0.859375 C 2.796875 -0.640625 3.25 -0.53125 3.75 -0.53125 C 4.382812 -0.53125 4.925781 -0.691406 5.375 -1.015625 Z M 5.375 -3.09375 "/></g></g></g><g fill="#ebe8e5" fill-opacity="1"><g transform="translate(195.232167, 267.540853)"><g><path d="M 5.390625 -0.5625 L 5.390625 0 L 1.015625 0 L 1.015625 -6.1875 L 5.25 -6.1875 L 5.25 -5.625 L 1.65625 -5.625 L 1.65625 -3.421875 L 4.859375 -3.421875 L 4.859375 -2.859375 L 1.65625 -2.859375 L 1.65625 -0.5625 Z M 5.390625 -0.5625 "/></g></g></g><g fill="#ebe8e5" fill-opacity="1"><g transform="translate(203.68912, 267.540853)"><g><path d="M 2.71875 0.046875 C 2.257812 0.046875 1.816406 -0.0234375 1.390625 -0.171875 C 0.972656 -0.316406 0.648438 -0.507812 0.421875 -0.75 L 0.671875 -1.25 C 0.898438 -1.03125 1.195312 -0.847656 1.5625 -0.703125 C 1.9375 -0.566406 2.320312 -0.5 2.71875 -0.5 C 3.269531 -0.5 3.679688 -0.597656 3.953125 -0.796875 C 4.234375 -1.003906 4.375 -1.269531 4.375 -1.59375 C 4.375 -1.84375 4.296875 -2.039062 4.140625 -2.1875 C 3.992188 -2.34375 3.8125 -2.457031 3.59375 -2.53125 C 3.375 -2.613281 3.070312 -2.703125 2.6875 -2.796875 C 2.21875 -2.910156 1.84375 -3.019531 1.5625 -3.125 C 1.289062 -3.238281 1.054688 -3.40625 0.859375 -3.625 C 0.660156 -3.851562 0.5625 -4.160156 0.5625 -4.546875 C 0.5625 -4.859375 0.644531 -5.140625 0.8125 -5.390625 C 0.976562 -5.648438 1.234375 -5.859375 1.578125 -6.015625 C 1.921875 -6.171875 2.34375 -6.25 2.84375 -6.25 C 3.195312 -6.25 3.539062 -6.195312 3.875 -6.09375 C 4.21875 -6 4.515625 -5.867188 4.765625 -5.703125 L 4.546875 -5.171875 C 4.285156 -5.347656 4.003906 -5.476562 3.703125 -5.5625 C 3.410156 -5.644531 3.125 -5.6875 2.84375 -5.6875 C 2.300781 -5.6875 1.894531 -5.582031 1.625 -5.375 C 1.351562 -5.164062 1.21875 -4.894531 1.21875 -4.5625 C 1.21875 -4.3125 1.289062 -4.109375 1.4375 -3.953125 C 1.582031 -3.804688 1.769531 -3.691406 2 -3.609375 C 2.226562 -3.535156 2.535156 -3.453125 2.921875 -3.359375 C 3.367188 -3.242188 3.734375 -3.128906 4.015625 -3.015625 C 4.296875 -2.910156 4.53125 -2.75 4.71875 -2.53125 C 4.914062 -2.3125 5.015625 -2.015625 5.015625 -1.640625 C 5.015625 -1.328125 4.929688 -1.039062 4.765625 -0.78125 C 4.597656 -0.519531 4.335938 -0.316406 3.984375 -0.171875 C 3.640625 -0.0234375 3.21875 0.046875 2.71875 0.046875 Z M 2.71875 0.046875 "/></g></g></g><g fill="#ebe8e5" fill-opacity="1"><g transform="translate(211.668978, 267.540853)"><g><path d="M 2.203125 -5.625 L 0.03125 -5.625 L 0.03125 -6.1875 L 5.046875 -6.1875 L 5.046875 -5.625 L 2.859375 -5.625 L 2.859375 0 L 2.203125 0 Z M 2.203125 -5.625 "/></g></g></g><g fill="#ebe8e5" fill-opacity="1"><g transform="translate(219.286601, 267.540853)"><g><path d="M 4.890625 -1.65625 L 1.4375 -1.65625 L 0.703125 0 L 0.015625 0 L 2.84375 -6.1875 L 3.5 -6.1875 L 6.328125 0 L 5.640625 0 Z M 4.65625 -2.1875 L 3.171875 -5.515625 L 1.6875 -2.1875 Z M 3.78125 -6.75 C 3.644531 -6.75 3.519531 -6.78125 3.40625 -6.84375 C 3.300781 -6.90625 3.1875 -6.988281 3.0625 -7.09375 C 2.957031 -7.1875 2.875 -7.25 2.8125 -7.28125 C 2.75 -7.320312 2.6875 -7.34375 2.625 -7.34375 C 2.488281 -7.34375 2.378906 -7.289062 2.296875 -7.1875 C 2.210938 -7.09375 2.164062 -6.957031 2.15625 -6.78125 L 1.78125 -6.78125 C 1.789062 -7.070312 1.863281 -7.304688 2 -7.484375 C 2.144531 -7.660156 2.335938 -7.75 2.578125 -7.75 C 2.710938 -7.75 2.832031 -7.71875 2.9375 -7.65625 C 3.039062 -7.601562 3.160156 -7.519531 3.296875 -7.40625 C 3.390625 -7.320312 3.46875 -7.257812 3.53125 -7.21875 C 3.59375 -7.175781 3.660156 -7.15625 3.734375 -7.15625 C 3.859375 -7.15625 3.960938 -7.203125 4.046875 -7.296875 C 4.128906 -7.398438 4.175781 -7.535156 4.1875 -7.703125 L 4.578125 -7.703125 C 4.554688 -7.410156 4.472656 -7.175781 4.328125 -7 C 4.191406 -6.832031 4.007812 -6.75 3.78125 -6.75 Z M 3.78125 -6.75 "/></g></g></g><g fill="#ebe8e5" fill-opacity="1"><g transform="translate(228.167629, 267.540853)"><g><path d="M 3.71875 0.046875 C 3.101562 0.046875 2.546875 -0.0859375 2.046875 -0.359375 C 1.546875 -0.628906 1.15625 -1.003906 0.875 -1.484375 C 0.59375 -1.960938 0.453125 -2.5 0.453125 -3.09375 C 0.453125 -3.6875 0.59375 -4.222656 0.875 -4.703125 C 1.15625 -5.179688 1.546875 -5.554688 2.046875 -5.828125 C 2.546875 -6.109375 3.101562 -6.25 3.71875 -6.25 C 4.332031 -6.25 4.882812 -6.113281 5.375 -5.84375 C 5.863281 -5.570312 6.25 -5.191406 6.53125 -4.703125 C 6.8125 -4.222656 6.953125 -3.6875 6.953125 -3.09375 C 6.953125 -2.5 6.8125 -1.960938 6.53125 -1.484375 C 6.25 -1.003906 5.863281 -0.628906 5.375 -0.359375 C 4.882812 -0.0859375 4.332031 0.046875 3.71875 0.046875 Z M 3.71875 -0.53125 C 4.207031 -0.53125 4.648438 -0.640625 5.046875 -0.859375 C 5.441406 -1.078125 5.75 -1.382812 5.96875 -1.78125 C 6.195312 -2.175781 6.3125 -2.613281 6.3125 -3.09375 C 6.3125 -3.582031 6.195312 -4.019531 5.96875 -4.40625 C 5.75 -4.800781 5.441406 -5.109375 5.046875 -5.328125 C 4.648438 -5.546875 4.207031 -5.65625 3.71875 -5.65625 C 3.226562 -5.65625 2.78125 -5.546875 2.375 -5.328125 C 1.976562 -5.109375 1.664062 -4.800781 1.4375 -4.40625 C 1.21875 -4.019531 1.109375 -3.582031 1.109375 -3.09375 C 1.109375 -2.613281 1.21875 -2.175781 1.4375 -1.78125 C 1.664062 -1.382812 1.976562 -1.078125 2.375 -0.859375 C 2.78125 -0.640625 3.226562 -0.53125 3.71875 -0.53125 Z M 3.71875 -0.53125 "/></g></g></g><g fill="#ebe8e5" fill-opacity="1"><g transform="translate(238.126544, 267.540853)"><g/></g></g><g fill="#ebe8e5" fill-opacity="1"><g transform="translate(242.987629, 267.540853)"><g><path d="M 1.015625 -6.1875 L 3.53125 -6.1875 C 4.1875 -6.1875 4.765625 -6.054688 5.265625 -5.796875 C 5.765625 -5.535156 6.148438 -5.171875 6.421875 -4.703125 C 6.703125 -4.234375 6.84375 -3.695312 6.84375 -3.09375 C 6.84375 -2.488281 6.703125 -1.953125 6.421875 -1.484375 C 6.148438 -1.015625 5.765625 -0.648438 5.265625 -0.390625 C 4.765625 -0.128906 4.1875 0 3.53125 0 L 1.015625 0 Z M 3.5 -0.5625 C 4.039062 -0.5625 4.515625 -0.671875 4.921875 -0.890625 C 5.328125 -1.109375 5.640625 -1.40625 5.859375 -1.78125 C 6.085938 -2.164062 6.203125 -2.601562 6.203125 -3.09375 C 6.203125 -3.59375 6.085938 -4.03125 5.859375 -4.40625 C 5.640625 -4.789062 5.328125 -5.085938 4.921875 -5.296875 C 4.515625 -5.515625 4.039062 -5.625 3.5 -5.625 L 1.65625 -5.625 L 1.65625 -0.5625 Z M 3.5 -0.5625 "/></g></g></g><g fill="#ebe8e5" fill-opacity="1"><g transform="translate(252.831677, 267.540853)"><g><path d="M 5.390625 -0.5625 L 5.390625 0 L 1.015625 0 L 1.015625 -6.1875 L 5.25 -6.1875 L 5.25 -5.625 L 1.65625 -5.625 L 1.65625 -3.421875 L 4.859375 -3.421875 L 4.859375 -2.859375 L 1.65625 -2.859375 L 1.65625 -0.5625 Z M 5.390625 -0.5625 "/></g></g></g><g fill="#ebe8e5" fill-opacity="1"><g transform="translate(261.288629, 267.540853)"><g/></g></g><g fill="#ebe8e5" fill-opacity="1"><g transform="translate(266.149715, 267.540853)"><g><path d="M 3.328125 -6.1875 C 4.117188 -6.1875 4.738281 -6 5.1875 -5.625 C 5.632812 -5.25 5.859375 -4.726562 5.859375 -4.0625 C 5.859375 -3.40625 5.632812 -2.890625 5.1875 -2.515625 C 4.738281 -2.140625 4.117188 -1.953125 3.328125 -1.953125 L 1.65625 -1.953125 L 1.65625 0 L 1.015625 0 L 1.015625 -6.1875 Z M 3.3125 -2.53125 C 3.925781 -2.53125 4.394531 -2.660156 4.71875 -2.921875 C 5.039062 -3.191406 5.203125 -3.570312 5.203125 -4.0625 C 5.203125 -4.5625 5.039062 -4.945312 4.71875 -5.21875 C 4.394531 -5.488281 3.925781 -5.625 3.3125 -5.625 L 1.65625 -5.625 L 1.65625 -2.53125 Z M 3.3125 -2.53125 "/></g></g></g><g fill="#ebe8e5" fill-opacity="1"><g transform="translate(275.039574, 267.540853)"><g><path d="M 5.390625 -0.5625 L 5.390625 0 L 1.015625 0 L 1.015625 -6.1875 L 5.25 -6.1875 L 5.25 -5.625 L 1.65625 -5.625 L 1.65625 -3.421875 L 4.859375 -3.421875 L 4.859375 -2.859375 L 1.65625 -2.859375 L 1.65625 -0.5625 Z M 5.390625 -0.5625 "/></g></g></g><g fill="#ebe8e5" fill-opacity="1"><g transform="translate(283.496526, 267.540853)"><g><path d="M 2.71875 0.046875 C 2.257812 0.046875 1.816406 -0.0234375 1.390625 -0.171875 C 0.972656 -0.316406 0.648438 -0.507812 0.421875 -0.75 L 0.671875 -1.25 C 0.898438 -1.03125 1.195312 -0.847656 1.5625 -0.703125 C 1.9375 -0.566406 2.320312 -0.5 2.71875 -0.5 C 3.269531 -0.5 3.679688 -0.597656 3.953125 -0.796875 C 4.234375 -1.003906 4.375 -1.269531 4.375 -1.59375 C 4.375 -1.84375 4.296875 -2.039062 4.140625 -2.1875 C 3.992188 -2.34375 3.8125 -2.457031 3.59375 -2.53125 C 3.375 -2.613281 3.070312 -2.703125 2.6875 -2.796875 C 2.21875 -2.910156 1.84375 -3.019531 1.5625 -3.125 C 1.289062 -3.238281 1.054688 -3.40625 0.859375 -3.625 C 0.660156 -3.851562 0.5625 -4.160156 0.5625 -4.546875 C 0.5625 -4.859375 0.644531 -5.140625 0.8125 -5.390625 C 0.976562 -5.648438 1.234375 -5.859375 1.578125 -6.015625 C 1.921875 -6.171875 2.34375 -6.25 2.84375 -6.25 C 3.195312 -6.25 3.539062 -6.195312 3.875 -6.09375 C 4.21875 -6 4.515625 -5.867188 4.765625 -5.703125 L 4.546875 -5.171875 C 4.285156 -5.347656 4.003906 -5.476562 3.703125 -5.5625 C 3.410156 -5.644531 3.125 -5.6875 2.84375 -5.6875 C 2.300781 -5.6875 1.894531 -5.582031 1.625 -5.375 C 1.351562 -5.164062 1.21875 -4.894531 1.21875 -4.5625 C 1.21875 -4.3125 1.289062 -4.109375 1.4375 -3.953125 C 1.582031 -3.804688 1.769531 -3.691406 2 -3.609375 C 2.226562 -3.535156 2.535156 -3.453125 2.921875 -3.359375 C 3.367188 -3.242188 3.734375 -3.128906 4.015625 -3.015625 C 4.296875 -2.910156 4.53125 -2.75 4.71875 -2.53125 C 4.914062 -2.3125 5.015625 -2.015625 5.015625 -1.640625 C 5.015625 -1.328125 4.929688 -1.039062 4.765625 -0.78125 C 4.597656 -0.519531 4.335938 -0.316406 3.984375 -0.171875 C 3.640625 -0.0234375 3.21875 0.046875 2.71875 0.046875 Z M 2.71875 0.046875 "/></g></g></g><g fill="#ebe8e5" fill-opacity="1"><g transform="translate(291.476385, 267.540853)"><g><path d="M 2.71875 0.046875 C 2.257812 0.046875 1.816406 -0.0234375 1.390625 -0.171875 C 0.972656 -0.316406 0.648438 -0.507812 0.421875 -0.75 L 0.671875 -1.25 C 0.898438 -1.03125 1.195312 -0.847656 1.5625 -0.703125 C 1.9375 -0.566406 2.320312 -0.5 2.71875 -0.5 C 3.269531 -0.5 3.679688 -0.597656 3.953125 -0.796875 C 4.234375 -1.003906 4.375 -1.269531 4.375 -1.59375 C 4.375 -1.84375 4.296875 -2.039062 4.140625 -2.1875 C 3.992188 -2.34375 3.8125 -2.457031 3.59375 -2.53125 C 3.375 -2.613281 3.070312 -2.703125 2.6875 -2.796875 C 2.21875 -2.910156 1.84375 -3.019531 1.5625 -3.125 C 1.289062 -3.238281 1.054688 -3.40625 0.859375 -3.625 C 0.660156 -3.851562 0.5625 -4.160156 0.5625 -4.546875 C 0.5625 -4.859375 0.644531 -5.140625 0.8125 -5.390625 C 0.976562 -5.648438 1.234375 -5.859375 1.578125 -6.015625 C 1.921875 -6.171875 2.34375 -6.25 2.84375 -6.25 C 3.195312 -6.25 3.539062 -6.195312 3.875 -6.09375 C 4.21875 -6 4.515625 -5.867188 4.765625 -5.703125 L 4.546875 -5.171875 C 4.285156 -5.347656 4.003906 -5.476562 3.703125 -5.5625 C 3.410156 -5.644531 3.125 -5.6875 2.84375 -5.6875 C 2.300781 -5.6875 1.894531 -5.582031 1.625 -5.375 C 1.351562 -5.164062 1.21875 -4.894531 1.21875 -4.5625 C 1.21875 -4.3125 1.289062 -4.109375 1.4375 -3.953125 C 1.582031 -3.804688 1.769531 -3.691406 2 -3.609375 C 2.226562 -3.535156 2.535156 -3.453125 2.921875 -3.359375 C 3.367188 -3.242188 3.734375 -3.128906 4.015625 -3.015625 C 4.296875 -2.910156 4.53125 -2.75 4.71875 -2.53125 C 4.914062 -2.3125 5.015625 -2.015625 5.015625 -1.640625 C 5.015625 -1.328125 4.929688 -1.039062 4.765625 -0.78125 C 4.597656 -0.519531 4.335938 -0.316406 3.984375 -0.171875 C 3.640625 -0.0234375 3.21875 0.046875 2.71875 0.046875 Z M 2.71875 0.046875 "/></g></g></g><g fill="#ebe8e5" fill-opacity="1"><g transform="translate(299.456244, 267.540853)"><g><path d="M 3.71875 0.046875 C 3.101562 0.046875 2.546875 -0.0859375 2.046875 -0.359375 C 1.546875 -0.628906 1.15625 -1.003906 0.875 -1.484375 C 0.59375 -1.960938 0.453125 -2.5 0.453125 -3.09375 C 0.453125 -3.6875 0.59375 -4.222656 0.875 -4.703125 C 1.15625 -5.179688 1.546875 -5.554688 2.046875 -5.828125 C 2.546875 -6.109375 3.101562 -6.25 3.71875 -6.25 C 4.332031 -6.25 4.882812 -6.113281 5.375 -5.84375 C 5.863281 -5.570312 6.25 -5.191406 6.53125 -4.703125 C 6.8125 -4.222656 6.953125 -3.6875 6.953125 -3.09375 C 6.953125 -2.5 6.8125 -1.960938 6.53125 -1.484375 C 6.25 -1.003906 5.863281 -0.628906 5.375 -0.359375 C 4.882812 -0.0859375 4.332031 0.046875 3.71875 0.046875 Z M 3.71875 -0.53125 C 4.207031 -0.53125 4.648438 -0.640625 5.046875 -0.859375 C 5.441406 -1.078125 5.75 -1.382812 5.96875 -1.78125 C 6.195312 -2.175781 6.3125 -2.613281 6.3125 -3.09375 C 6.3125 -3.582031 6.195312 -4.019531 5.96875 -4.40625 C 5.75 -4.800781 5.441406 -5.109375 5.046875 -5.328125 C 4.648438 -5.546875 4.207031 -5.65625 3.71875 -5.65625 C 3.226562 -5.65625 2.78125 -5.546875 2.375 -5.328125 C 1.976562 -5.109375 1.664062 -4.800781 1.4375 -4.40625 C 1.21875 -4.019531 1.109375 -3.582031 1.109375 -3.09375 C 1.109375 -2.613281 1.21875 -2.175781 1.4375 -1.78125 C 1.664062 -1.382812 1.976562 -1.078125 2.375 -0.859375 C 2.78125 -0.640625 3.226562 -0.53125 3.71875 -0.53125 Z M 3.71875 -0.53125 "/></g></g></g><g fill="#ebe8e5" fill-opacity="1"><g transform="translate(309.415158, 267.540853)"><g><path d="M 4.890625 -1.65625 L 1.4375 -1.65625 L 0.703125 0 L 0.015625 0 L 2.84375 -6.1875 L 3.5 -6.1875 L 6.328125 0 L 5.640625 0 Z M 4.65625 -2.1875 L 3.171875 -5.515625 L 1.6875 -2.1875 Z M 4.65625 -2.1875 "/></g></g></g><g fill="#ebe8e5" fill-opacity="1"><g transform="translate(318.296187, 267.540853)"><g><path d="M 2.71875 0.046875 C 2.257812 0.046875 1.816406 -0.0234375 1.390625 -0.171875 C 0.972656 -0.316406 0.648438 -0.507812 0.421875 -0.75 L 0.671875 -1.25 C 0.898438 -1.03125 1.195312 -0.847656 1.5625 -0.703125 C 1.9375 -0.566406 2.320312 -0.5 2.71875 -0.5 C 3.269531 -0.5 3.679688 -0.597656 3.953125 -0.796875 C 4.234375 -1.003906 4.375 -1.269531 4.375 -1.59375 C 4.375 -1.84375 4.296875 -2.039062 4.140625 -2.1875 C 3.992188 -2.34375 3.8125 -2.457031 3.59375 -2.53125 C 3.375 -2.613281 3.070312 -2.703125 2.6875 -2.796875 C 2.21875 -2.910156 1.84375 -3.019531 1.5625 -3.125 C 1.289062 -3.238281 1.054688 -3.40625 0.859375 -3.625 C 0.660156 -3.851562 0.5625 -4.160156 0.5625 -4.546875 C 0.5625 -4.859375 0.644531 -5.140625 0.8125 -5.390625 C 0.976562 -5.648438 1.234375 -5.859375 1.578125 -6.015625 C 1.921875 -6.171875 2.34375 -6.25 2.84375 -6.25 C 3.195312 -6.25 3.539062 -6.195312 3.875 -6.09375 C 4.21875 -6 4.515625 -5.867188 4.765625 -5.703125 L 4.546875 -5.171875 C 4.285156 -5.347656 4.003906 -5.476562 3.703125 -5.5625 C 3.410156 -5.644531 3.125 -5.6875 2.84375 -5.6875 C 2.300781 -5.6875 1.894531 -5.582031 1.625 -5.375 C 1.351562 -5.164062 1.21875 -4.894531 1.21875 -4.5625 C 1.21875 -4.3125 1.289062 -4.109375 1.4375 -3.953125 C 1.582031 -3.804688 1.769531 -3.691406 2 -3.609375 C 2.226562 -3.535156 2.535156 -3.453125 2.921875 -3.359375 C 3.367188 -3.242188 3.734375 -3.128906 4.015625 -3.015625 C 4.296875 -2.910156 4.53125 -2.75 4.71875 -2.53125 C 4.914062 -2.3125 5.015625 -2.015625 5.015625 -1.640625 C 5.015625 -1.328125 4.929688 -1.039062 4.765625 -0.78125 C 4.597656 -0.519531 4.335938 -0.316406 3.984375 -0.171875 C 3.640625 -0.0234375 3.21875 0.046875 2.71875 0.046875 Z M 2.71875 0.046875 "/></g></g></g><g fill="#ebe8e5" fill-opacity="1"><g transform="translate(326.279045, 267.540853)"><g/></g></g><g clip-path="url(#d4ebf4750e)"><path fill="#ebe8e5" d="M 227.589844 133.636719 C 227.429688 132.8125 227.175781 131.980469 226.78125 131.179688 C 226.390625 130.382812 225.855469 129.621094 225.167969 128.976562 C 224.488281 128.328125 223.65625 127.8125 222.769531 127.484375 C 222.324219 127.320312 221.871094 127.203125 221.414062 127.125 L 220.816406 127.03125 C 220.601562 127.007812 220.367188 126.984375 220.152344 126.96875 C 219.316406 126.910156 218.5 126.925781 217.695312 127 C 216.09375 127.148438 214.554688 127.496094 213.074219 127.957031 C 212.332031 128.183594 211.605469 128.441406 210.890625 128.722656 C 210.175781 129.003906 209.476562 129.316406 208.785156 129.640625 C 206.03125 130.953125 203.445312 132.554688 201.046875 134.402344 C 199.84375 135.320312 198.683594 136.300781 197.570312 137.335938 C 196.460938 138.371094 195.402344 139.46875 194.402344 140.621094 C 192.402344 142.933594 190.628906 145.488281 189.265625 148.324219 C 188.585938 149.742188 188.023438 151.234375 187.605469 152.789062 C 187.570312 152.910156 187.539062 153.03125 187.511719 153.15625 C 187.480469 153.03125 187.453125 152.910156 187.417969 152.789062 C 187 151.234375 186.433594 149.742188 185.753906 148.324219 C 184.394531 145.488281 182.617188 142.933594 180.621094 140.621094 C 179.617188 139.46875 178.558594 138.371094 177.449219 137.335938 C 176.335938 136.300781 175.179688 135.320312 173.976562 134.402344 C 171.574219 132.554688 168.988281 130.953125 166.234375 129.640625 C 165.542969 129.316406 164.847656 129.003906 164.128906 128.722656 C 163.414062 128.441406 162.6875 128.183594 161.945312 127.957031 C 160.46875 127.496094 158.929688 127.148438 157.324219 127 C 156.523438 126.925781 155.703125 126.910156 154.871094 126.96875 C 154.65625 126.984375 154.417969 127.007812 154.207031 127.03125 L 153.605469 127.125 C 153.152344 127.203125 152.695312 127.320312 152.253906 127.484375 C 151.367188 127.8125 150.535156 128.328125 149.851562 128.976562 C 149.167969 129.621094 148.628906 130.382812 148.238281 131.179688 C 147.84375 131.980469 147.589844 132.8125 147.429688 133.636719 C 147.273438 134.464844 147.214844 135.292969 147.226562 136.101562 C 147.253906 137.726562 147.554688 139.292969 148.035156 140.773438 C 148.511719 142.253906 149.15625 143.65625 149.917969 144.972656 C 150.683594 146.292969 151.566406 147.527344 152.53125 148.675781 C 153.5 149.828125 154.546875 150.894531 155.65625 151.886719 C 156.769531 152.875 157.945312 153.78125 159.160156 154.617188 C 160.371094 155.457031 161.636719 156.210938 162.925781 156.910156 C 164.21875 157.601562 165.539062 158.226562 166.886719 158.792969 C 169.574219 159.917969 172.351562 160.800781 175.167969 161.464844 C 172.449219 160.476562 169.796875 159.335938 167.261719 157.992188 C 165.996094 157.324219 164.765625 156.597656 163.570312 155.820312 C 162.375 155.046875 161.222656 154.210938 160.121094 153.324219 C 159.019531 152.4375 157.972656 151.492188 156.996094 150.484375 C 156.015625 149.480469 155.105469 148.417969 154.289062 147.296875 C 153.472656 146.175781 152.746094 145 152.128906 143.777344 C 151.519531 142.558594 151.027344 141.289062 150.695312 139.996094 C 150.367188 138.707031 150.1875 137.394531 150.238281 136.125 C 150.28125 134.863281 150.5625 133.640625 151.109375 132.671875 C 151.382812 132.1875 151.714844 131.769531 152.101562 131.445312 C 152.484375 131.117188 152.917969 130.878906 153.394531 130.726562 C 153.632812 130.648438 153.882812 130.597656 154.140625 130.566406 L 154.613281 130.527344 L 155.03125 130.515625 C 155.640625 130.511719 156.265625 130.566406 156.898438 130.660156 C 158.164062 130.847656 159.445312 131.203125 160.699219 131.667969 C 161.953125 132.132812 163.1875 132.699219 164.394531 133.332031 C 166.808594 134.601562 169.089844 136.164062 171.226562 137.890625 C 172.289062 138.757812 173.3125 139.675781 174.289062 140.636719 C 174.773438 141.121094 175.253906 141.609375 175.71875 142.109375 C 176.179688 142.613281 176.632812 143.121094 177.066406 143.644531 C 177.933594 144.691406 178.75 145.773438 179.484375 146.898438 C 179.851562 147.460938 180.203125 148.027344 180.527344 148.609375 C 180.855469 149.1875 181.164062 149.773438 181.4375 150.371094 C 182 151.5625 182.457031 152.78125 182.785156 154.019531 C 182.828125 154.171875 182.859375 154.328125 182.898438 154.480469 C 182.9375 154.636719 182.96875 154.792969 183.003906 154.949219 L 183.050781 155.179688 L 183.0625 155.238281 C 183.066406 155.253906 183.066406 155.253906 183.066406 155.253906 L 183.066406 155.257812 L 183.160156 155.789062 L 183.167969 155.855469 L 183.175781 155.90625 L 183.230469 156.328125 L 183.273438 156.785156 C 183.289062 156.9375 183.289062 157.089844 183.300781 157.242188 C 183.3125 157.394531 183.3125 157.550781 183.3125 157.703125 C 183.355469 160.15625 182.679688 162.613281 181.523438 164.9375 C 181.378906 165.230469 181.222656 165.515625 181.070312 165.804688 C 180.90625 166.089844 180.75 166.378906 180.574219 166.660156 C 180.234375 167.226562 179.859375 167.78125 179.476562 168.332031 C 178.699219 169.429688 177.855469 170.496094 176.941406 171.523438 C 176.710938 171.777344 176.484375 172.039062 176.246094 172.289062 C 176.015625 172.542969 175.777344 172.792969 175.535156 173.042969 C 175.296875 173.292969 175.050781 173.539062 174.804688 173.785156 C 174.566406 174.027344 174.300781 174.285156 174.046875 174.539062 C 173.019531 175.554688 171.988281 176.574219 170.957031 177.609375 C 168.902344 179.683594 166.859375 181.832031 165.015625 184.257812 C 164.101562 185.472656 163.238281 186.753906 162.511719 188.128906 C 162.488281 188.171875 162.464844 188.21875 162.441406 188.261719 C 162.390625 188.097656 162.339844 187.9375 162.289062 187.773438 C 161.820312 186.207031 161.421875 184.621094 161.09375 183.023438 C 160.769531 181.421875 160.53125 179.8125 160.410156 178.195312 C 160.289062 176.582031 160.28125 174.964844 160.46875 173.375 C 160.5625 172.582031 160.699219 171.796875 160.894531 171.027344 C 161.089844 170.261719 161.347656 169.511719 161.675781 168.796875 C 162 168.082031 162.394531 167.394531 162.867188 166.765625 C 163.339844 166.132812 163.882812 165.550781 164.492188 165.039062 C 165.105469 164.527344 165.773438 164.074219 166.492188 163.699219 C 167.210938 163.320312 167.972656 163.007812 168.757812 162.757812 C 169.152344 162.632812 169.550781 162.519531 169.953125 162.425781 C 170.359375 162.328125 170.765625 162.242188 171.175781 162.171875 C 172 162.03125 172.832031 161.929688 173.671875 161.871094 C 171.996094 161.769531 170.289062 161.832031 168.605469 162.167969 C 167.765625 162.335938 166.933594 162.574219 166.125 162.898438 C 165.316406 163.222656 164.539062 163.632812 163.808594 164.132812 C 163.078125 164.632812 162.40625 165.226562 161.804688 165.886719 C 161.207031 166.550781 160.683594 167.285156 160.246094 168.0625 C 159.367188 169.621094 158.796875 171.332031 158.460938 173.058594 C 158.289062 173.925781 158.175781 174.796875 158.101562 175.671875 C 158.027344 176.542969 157.992188 177.417969 157.996094 178.289062 C 158.003906 180.03125 158.140625 181.761719 158.371094 183.476562 C 158.480469 184.335938 158.621094 185.1875 158.78125 186.035156 C 158.941406 186.882812 159.121094 187.726562 159.320312 188.566406 C 159.519531 189.40625 159.734375 190.242188 159.96875 191.074219 C 160.089844 191.488281 160.210938 191.90625 160.339844 192.320312 L 160.542969 192.941406 L 160.648438 193.253906 L 160.761719 193.585938 L 162.308594 197.980469 L 163.925781 193.492188 C 164.375 192.238281 164.953125 191.042969 165.640625 189.902344 C 166.335938 188.761719 167.132812 187.671875 168.003906 186.617188 C 168.878906 185.566406 169.824219 184.550781 170.816406 183.554688 C 171.804688 182.558594 172.824219 181.570312 173.863281 180.59375 C 174.90625 179.613281 175.960938 178.640625 177.023438 177.664062 C 177.546875 177.183594 178.109375 176.667969 178.644531 176.144531 C 178.914062 175.882812 179.183594 175.617188 179.445312 175.347656 C 179.714844 175.082031 179.972656 174.804688 180.234375 174.53125 C 181.273438 173.429688 182.265625 172.265625 183.195312 171.03125 C 183.652344 170.40625 184.097656 169.773438 184.515625 169.109375 C 184.730469 168.785156 184.925781 168.441406 185.128906 168.105469 C 185.324219 167.761719 185.519531 167.417969 185.699219 167.0625 C 185.886719 166.710938 186.054688 166.347656 186.226562 165.988281 C 186.386719 165.621094 186.550781 165.257812 186.695312 164.878906 C 186.992188 164.128906 187.257812 163.359375 187.464844 162.566406 C 187.480469 162.503906 187.496094 162.441406 187.511719 162.378906 C 187.527344 162.441406 187.542969 162.503906 187.558594 162.566406 C 187.761719 163.359375 188.027344 164.128906 188.324219 164.878906 C 188.46875 165.257812 188.632812 165.621094 188.796875 165.988281 C 188.96875 166.347656 189.136719 166.710938 189.324219 167.0625 C 189.5 167.417969 189.699219 167.761719 189.890625 168.105469 C 190.09375 168.441406 190.289062 168.785156 190.507812 169.109375 C 190.921875 169.773438 191.371094 170.40625 191.828125 171.03125 C 192.757812 172.265625 193.746094 173.429688 194.789062 174.53125 C 195.050781 174.804688 195.308594 175.082031 195.574219 175.347656 C 195.839844 175.617188 196.105469 175.882812 196.375 176.144531 C 196.910156 176.667969 197.472656 177.183594 197.996094 177.664062 C 199.058594 178.640625 200.117188 179.613281 201.15625 180.59375 C 202.199219 181.570312 203.21875 182.558594 204.207031 183.554688 C 205.195312 184.550781 206.140625 185.566406 207.015625 186.617188 C 207.886719 187.671875 208.6875 188.761719 209.378906 189.902344 C 210.070312 191.042969 210.644531 192.238281 211.097656 193.492188 L 212.710938 197.980469 L 214.257812 193.585938 L 214.375 193.253906 L 214.480469 192.941406 L 214.679688 192.320312 C 214.8125 191.90625 214.933594 191.488281 215.050781 191.074219 C 215.289062 190.242188 215.503906 189.40625 215.703125 188.566406 C 215.898438 187.726562 216.078125 186.882812 216.238281 186.035156 C 216.402344 185.1875 216.539062 184.335938 216.652344 183.476562 C 216.878906 181.761719 217.015625 180.03125 217.027344 178.289062 C 217.027344 177.417969 216.996094 176.542969 216.921875 175.671875 C 216.84375 174.796875 216.730469 173.925781 216.558594 173.058594 C 216.222656 171.332031 215.65625 169.621094 214.773438 168.0625 C 214.339844 167.285156 213.816406 166.550781 213.214844 165.886719 C 212.617188 165.226562 211.941406 164.632812 211.214844 164.132812 C 210.484375 163.632812 209.703125 163.222656 208.894531 162.898438 C 208.089844 162.574219 207.253906 162.335938 206.414062 162.167969 C 204.730469 161.832031 203.027344 161.769531 201.347656 161.871094 C 202.1875 161.929688 203.019531 162.03125 203.84375 162.171875 C 204.253906 162.242188 204.664062 162.328125 205.066406 162.425781 C 205.472656 162.519531 205.867188 162.632812 206.261719 162.757812 C 207.046875 163.007812 207.808594 163.320312 208.527344 163.699219 C 209.246094 164.074219 209.914062 164.527344 210.527344 165.039062 C 211.136719 165.550781 211.683594 166.132812 212.152344 166.765625 C 212.625 167.394531 213.019531 168.082031 213.347656 168.796875 C 213.671875 169.511719 213.929688 170.261719 214.128906 171.027344 C 214.324219 171.796875 214.460938 172.582031 214.554688 173.375 C 214.738281 174.964844 214.734375 176.582031 214.609375 178.195312 C 214.492188 179.8125 214.25 181.421875 213.925781 183.023438 C 213.597656 184.621094 213.203125 186.207031 212.730469 187.773438 C 212.679688 187.9375 212.628906 188.097656 212.578125 188.261719 C 212.554688 188.21875 212.535156 188.171875 212.511719 188.128906 C 211.78125 186.753906 210.917969 185.472656 210.003906 184.257812 C 208.164062 181.832031 206.117188 179.683594 204.0625 177.609375 C 203.035156 176.574219 202.003906 175.554688 200.972656 174.539062 C 200.71875 174.285156 200.453125 174.027344 200.214844 173.785156 C 199.96875 173.539062 199.722656 173.292969 199.484375 173.042969 C 199.242188 172.792969 199.007812 172.542969 198.773438 172.289062 C 198.535156 172.039062 198.308594 171.777344 198.082031 171.523438 C 197.167969 170.496094 196.320312 169.429688 195.546875 168.332031 C 195.160156 167.78125 194.785156 167.226562 194.449219 166.660156 C 194.273438 166.378906 194.117188 166.089844 193.953125 165.804688 C 193.800781 165.515625 193.640625 165.230469 193.5 164.9375 C 192.339844 162.613281 191.667969 160.15625 191.710938 157.703125 C 191.710938 157.550781 191.710938 157.394531 191.722656 157.242188 C 191.730469 157.089844 191.730469 156.9375 191.75 156.785156 L 191.792969 156.328125 L 191.84375 155.90625 L 191.851562 155.855469 L 191.886719 155.65625 L 191.929688 155.390625 L 191.953125 155.257812 L 191.953125 155.253906 C 191.953125 155.257812 191.953125 155.253906 191.957031 155.238281 L 191.96875 155.179688 L 192.019531 154.949219 C 192.050781 154.792969 192.082031 154.636719 192.121094 154.480469 C 192.160156 154.328125 192.195312 154.171875 192.234375 154.019531 C 192.566406 152.78125 193.023438 151.5625 193.582031 150.371094 C 193.859375 149.773438 194.167969 149.1875 194.492188 148.609375 C 194.816406 148.027344 195.171875 147.460938 195.539062 146.898438 C 196.269531 145.773438 197.085938 144.691406 197.957031 143.644531 C 198.390625 143.121094 198.84375 142.613281 199.304688 142.109375 C 199.765625 141.609375 200.246094 141.121094 200.730469 140.636719 C 201.707031 139.675781 202.730469 138.757812 203.796875 137.890625 C 205.933594 136.164062 208.214844 134.601562 210.625 133.332031 C 211.832031 132.699219 213.066406 132.132812 214.320312 131.667969 C 215.578125 131.203125 216.855469 130.847656 218.121094 130.660156 C 218.753906 130.566406 219.378906 130.511719 219.992188 130.515625 L 220.40625 130.527344 L 220.882812 130.566406 C 221.140625 130.597656 221.390625 130.648438 221.625 130.726562 C 222.101562 130.878906 222.539062 131.117188 222.921875 131.445312 C 223.304688 131.769531 223.636719 132.1875 223.910156 132.671875 C 224.457031 133.640625 224.738281 134.863281 224.785156 136.125 C 224.835938 137.394531 224.652344 138.707031 224.324219 139.996094 C 223.996094 141.289062 223.503906 142.558594 222.890625 143.777344 C 222.277344 145 221.550781 146.175781 220.734375 147.296875 C 219.914062 148.417969 219.003906 149.480469 218.027344 150.484375 C 217.050781 151.492188 216 152.4375 214.902344 153.324219 C 213.796875 154.210938 212.648438 155.046875 211.453125 155.820312 C 210.257812 156.597656 209.023438 157.324219 207.757812 157.992188 C 205.226562 159.335938 202.574219 160.476562 199.855469 161.464844 C 202.671875 160.800781 205.445312 159.917969 208.136719 158.792969 C 209.480469 158.226562 210.804688 157.601562 212.09375 156.910156 C 213.386719 156.210938 214.648438 155.457031 215.863281 154.617188 C 217.078125 153.78125 218.25 152.875 219.363281 151.886719 C 220.472656 150.894531 221.523438 149.828125 222.488281 148.675781 C 223.457031 147.527344 224.339844 146.292969 225.101562 144.972656 C 225.863281 143.65625 226.511719 142.253906 226.988281 140.773438 C 227.464844 139.292969 227.765625 137.726562 227.792969 136.101562 C 227.804688 135.292969 227.746094 134.464844 227.589844 133.636719 " fill-opacity="1" fill-rule="nonzero"/></g></svg>